<?xml version="1.0" encoding="UTF-8" standalone="no"?>
<!-- Created with Inkscape (http://www.inkscape.org/) -->

<svg
   width="256"
   height="256"
   viewBox="0 0 67.733334 67.733334"
   version="1.1"
   id="svg5"
   inkscape:version="1.1.2 (b8e25be833, 2022-02-05)"
   sodipodi:docname="status_trashy.svg"
   inkscape:export-filename="C:\Users\David Dalisay\KennyJam22\Sprites\green_monster.png"
   inkscape:export-xdpi="18"
   inkscape:export-ydpi="18"
   xmlns:inkscape="http://www.inkscape.org/namespaces/inkscape"
   xmlns:sodipodi="http://sodipodi.sourceforge.net/DTD/sodipodi-0.dtd"
   xmlns="http://www.w3.org/2000/svg"
   xmlns:svg="http://www.w3.org/2000/svg">
  <sodipodi:namedview
     id="namedview7"
     pagecolor="#ffffff"
     bordercolor="#666666"
     borderopacity="1.0"
     inkscape:pageshadow="2"
     inkscape:pageopacity="0.0"
     inkscape:pagecheckerboard="0"
     inkscape:document-units="mm"
     showgrid="true"
     inkscape:zoom="1.0998546"
     inkscape:cx="124.10731"
     inkscape:cy="115.46981"
     inkscape:window-width="2560"
     inkscape:window-height="1377"
     inkscape:window-x="-8"
     inkscape:window-y="-8"
     inkscape:window-maximized="1"
     inkscape:current-layer="layer2"
     units="px"
     width="384px">
    <inkscape:grid
       type="xygrid"
       id="grid3982" />
  </sodipodi:namedview>
  <defs
     id="defs2" />
  <g
     inkscape:label="Background"
     inkscape:groupmode="layer"
     id="layer1"
     style="display:none">
    <path
       style="fill:#000000;fill-opacity:1;stroke:#000000;stroke-width:3.26929;stroke-miterlimit:4;stroke-dasharray:none;stroke-opacity:1"
       id="path21150"
       sodipodi:type="arc"
       sodipodi:cx="37.679482"
       sodipodi:cy="30.112"
       sodipodi:rx="25.840832"
       sodipodi:ry="25.422367"
       sodipodi:start="0"
       sodipodi:end="6.2435314"
       sodipodi:arc-type="slice"
       d="M 63.520313,30.112 A 25.840832,25.422367 0 0 1 37.93565,55.533117 25.840832,25.422367 0 0 1 11.843729,30.616015 25.840832,25.422367 0 0 1 36.911077,4.7008745 25.840832,25.422367 0 0 1 63.499999,29.104167 L 37.679482,30.112 Z" />
    <path
       sodipodi:type="star"
       style="fill:#000000;fill-opacity:1;stroke:#000000;stroke-width:3.26929;stroke-miterlimit:4;stroke-dasharray:none;stroke-opacity:1"
       id="path21746"
       inkscape:flatsided="false"
       sodipodi:sides="3"
       sodipodi:cx="-80"
       sodipodi:cy="130"
       sodipodi:r1="60"
       sodipodi:r2="31.27458"
       sodipodi:arg1="0"
       sodipodi:arg2="1.0471976"
       inkscape:rounded="0"
       inkscape:randomized="0"
       d="M -20,130 -64.362711,157.08458 -110,181.96152 -111.27458,130 -110,78.038476 -64.362709,102.91542 Z"
       transform="matrix(0.26088268,0.04409722,-0.04409722,0.26088268,45.367541,21.533474)"
       inkscape:transform-center-x="-2.7675615"
       inkscape:transform-center-y="-1.3229167" />
  </g>
  <g
     inkscape:groupmode="layer"
     id="layer2"
     inkscape:label="Icon"
     style="display:inline">
    <path
       stroke="none"
       fill="#ffffff"
       d="m 36.914335,34.232716 q -0.721444,-0.625894 -0.832434,-1.579635 -0.138748,-0.983544 0.443963,-1.758461 0.554958,-0.804718 1.470634,-0.923937 0.887929,-0.149031 1.637121,0.476872 2.525049,1.788265 7.269922,0.208622 L 46.54282,30.417751 q -0.388468,-0.268241 -0.49946,-0.745112 -0.110999,-0.47687 0.138747,-0.894133 0.249732,-0.417261 0.693695,-0.53648 l 0.832434,0.149032 3.66271,2.473767 0.416218,0.506676 0.110998,0.655698 -0.249729,0.596087 -0.360721,0.506676 -0.0555,0.119225 -0.804685,1.043155 -2.081086,2.831421 q -0.277479,0.387457 -0.721442,0.447067 -0.471713,0.02981 -0.832434,-0.268241 -0.360721,-0.298045 -0.388471,-0.774914 -0.0555,-0.476871 0.194226,-0.834524 -6.243256,1.639242 -9.683982,-1.460417 M 24.566566,27.824783 q 0,-5.424404 3.579468,-9.269176 3.579465,-3.844769 8.629566,-3.844769 5.050099,0 8.629564,3.844769 3.135502,3.3679 3.523972,7.957782 v 0.655696 L 48.76266,27.04986 Q 47.819234,26.45377 46.653827,26.722011 46.071122,26.871042 45.654906,27.25849 45.46068,23.68196 43.046612,21.088976 40.43832,18.28736 36.77561,18.28736 q -3.662709,0 -6.271003,2.77181 l -0.02775,0.02981 q -2.580546,2.801614 -2.580546,6.735798 l 0.0555,1.192178 q 0.332973,3.189073 2.552797,5.543622 2.608294,2.801614 6.271003,2.801614 l 1.359642,-0.08942 q 2.913518,1.49022 7.075688,0.804718 l 0.665948,0.864328 -0.471713,0.506676 -0.02775,0.02981 q -3.551718,3.844772 -8.601817,3.844772 -5.050101,0 -8.629566,-3.844772 -3.57948,-3.844774 -3.57948,-9.26918 v -1.192175 -1.192178"
       id="path1350-4"
       style="fill:#ffffff;stroke-width:0.575154" />
  </g>
</svg>
