<?xml version="1.0" encoding="UTF-8" standalone="no"?>
<!-- Created with Inkscape (http://www.inkscape.org/) -->

<svg
   width="256"
   height="256"
   viewBox="0 0 67.733334 67.733334"
   version="1.1"
   id="svg5"
   inkscape:version="1.1.2 (b8e25be833, 2022-02-05)"
   sodipodi:docname="status_thirsty.svg"
   inkscape:export-filename="C:\Users\David Dalisay\KennyJam22\Sprites\green_monster.png"
   inkscape:export-xdpi="18"
   inkscape:export-ydpi="18"
   xmlns:inkscape="http://www.inkscape.org/namespaces/inkscape"
   xmlns:sodipodi="http://sodipodi.sourceforge.net/DTD/sodipodi-0.dtd"
   xmlns="http://www.w3.org/2000/svg"
   xmlns:svg="http://www.w3.org/2000/svg">
  <sodipodi:namedview
     id="namedview7"
     pagecolor="#ffffff"
     bordercolor="#666666"
     borderopacity="1.0"
     inkscape:pageshadow="2"
     inkscape:pageopacity="0.0"
     inkscape:pagecheckerboard="0"
     inkscape:document-units="mm"
     showgrid="true"
     inkscape:zoom="1.0998546"
     inkscape:cx="124.10731"
     inkscape:cy="115.46981"
     inkscape:window-width="2560"
     inkscape:window-height="1377"
     inkscape:window-x="-8"
     inkscape:window-y="-8"
     inkscape:window-maximized="1"
     inkscape:current-layer="layer2"
     units="px"
     width="384px">
    <inkscape:grid
       type="xygrid"
       id="grid3982" />
  </sodipodi:namedview>
  <defs
     id="defs2" />
  <g
     inkscape:label="Background"
     inkscape:groupmode="layer"
     id="layer1"
     style="display:none">
    <path
       style="fill:#000000;fill-opacity:1;stroke:#000000;stroke-width:3.26929;stroke-miterlimit:4;stroke-dasharray:none;stroke-opacity:1"
       id="path21150"
       sodipodi:type="arc"
       sodipodi:cx="37.679482"
       sodipodi:cy="30.112"
       sodipodi:rx="25.840832"
       sodipodi:ry="25.422367"
       sodipodi:start="0"
       sodipodi:end="6.2435314"
       sodipodi:arc-type="slice"
       d="M 63.520313,30.112 A 25.840832,25.422367 0 0 1 37.93565,55.533117 25.840832,25.422367 0 0 1 11.843729,30.616015 25.840832,25.422367 0 0 1 36.911077,4.7008745 25.840832,25.422367 0 0 1 63.499999,29.104167 L 37.679482,30.112 Z" />
    <path
       sodipodi:type="star"
       style="fill:#000000;fill-opacity:1;stroke:#000000;stroke-width:3.26929;stroke-miterlimit:4;stroke-dasharray:none;stroke-opacity:1"
       id="path21746"
       inkscape:flatsided="false"
       sodipodi:sides="3"
       sodipodi:cx="-80"
       sodipodi:cy="130"
       sodipodi:r1="60"
       sodipodi:r2="31.27458"
       sodipodi:arg1="0"
       sodipodi:arg2="1.0471976"
       inkscape:rounded="0"
       inkscape:randomized="0"
       d="M -20,130 -64.362711,157.08458 -110,181.96152 -111.27458,130 -110,78.038476 -64.362709,102.91542 Z"
       transform="matrix(0.26088268,0.04409722,-0.04409722,0.26088268,45.367541,21.533474)"
       inkscape:transform-center-x="-2.7675615"
       inkscape:transform-center-y="-1.3229167" />
  </g>
  <g
     inkscape:groupmode="layer"
     id="layer2"
     inkscape:label="Icon"
     style="display:inline">
    <path
       stroke="none"
       fill="#ffffff"
       d="m 33.507367,20.077304 q 0.05783,0.843743 0.905933,1.948645 0.250577,0.321425 0.250577,0.743297 v 4.479876 q 0,0.381693 -0.212027,0.70312 l -6.437901,9.321356 q -0.231302,0.341516 -0.231302,0.743298 0,0.522319 0.327678,0.904011 0.327676,0.281248 0.809557,0.281248 h 16.036927 q 0.481879,0 0.828831,-0.281248 0.308404,-0.381692 0.308404,-0.904011 0,-0.401782 -0.231302,-0.743298 l -6.418628,-9.321356 q -0.231302,-0.321427 -0.231302,-0.70312 v -4.479876 q 0,-0.421872 0.250579,-0.743297 0.828831,-1.084813 0.905931,-1.928557 l -0.01928,-0.02009 h -6.823405 v 0.02009 l -0.01928,-0.02009 m 0,-2.410696 h 6.861955 q 1.060135,0 1.657664,0.743298 0.674631,0.723209 0.655354,1.667398 0.05783,1.386149 -1.156509,3.113814 v 3.676312 l 6.225875,8.999929 v 0.02009 q 0.655356,0.964278 0.655356,2.129446 0,1.466507 -0.905933,2.531231 l -0.07711,0.08036 q -1.021582,0.984367 -2.467219,0.984367 H 28.919882 q -1.445637,0 -2.447946,-0.984367 l -0.09637,-0.08036 q -0.905933,-1.064724 -0.905933,-2.531231 0,-1.165168 0.655354,-2.129446 l 0.01928,-0.02009 6.206599,-8.999929 v -3.676312 q -1.214334,-1.727665 -1.156509,-3.113814 -0.01928,-0.944189 0.655355,-1.667398 0.59753,-0.743298 1.657663,-0.743298 m 1.908242,10.948575 0.03855,-0.04018 q 0.269852,-0.441961 0.346953,-0.94419 0.05783,-0.441962 0.385502,-0.743297 0.308403,-0.301338 0.751732,-0.281248 0.424052,-0.02009 0.75173,0.281248 0.327678,0.301335 0.40478,0.743297 0.07711,0.542407 0.404777,1.024547 l 5.127192,7.432977 q 0.250577,0.381694 0.212025,0.843744 -0.03856,0.441961 -0.366227,0.763387 -0.346953,0.301337 -0.771005,0.301337 H 31.194359 q -0.443329,0 -0.771005,-0.301337 -0.327678,-0.321426 -0.366229,-0.763387 -0.05783,-0.46205 0.212026,-0.843744 l 5.127191,-7.432977 0.01928,-0.04018"
       id="path1302-9"
       style="fill:#ffffff;stroke-width:0.393558" />
  </g>
</svg>
