<?xml version="1.0" encoding="UTF-8" standalone="no"?>
<!-- Created with Inkscape (http://www.inkscape.org/) -->

<svg
   width="384"
   height="384"
   viewBox="0 0 101.6 101.6"
   version="1.1"
   id="svg5"
   inkscape:version="1.1.2 (b8e25be833, 2022-02-05)"
   sodipodi:docname="antena_monster_3.svg"
   inkscape:export-filename="C:\Users\David Dalisay\KennyJam22\Sprites\green_monster.png"
   inkscape:export-xdpi="18"
   inkscape:export-ydpi="18"
   xmlns:inkscape="http://www.inkscape.org/namespaces/inkscape"
   xmlns:sodipodi="http://sodipodi.sourceforge.net/DTD/sodipodi-0.dtd"
   xmlns="http://www.w3.org/2000/svg"
   xmlns:svg="http://www.w3.org/2000/svg">
  <sodipodi:namedview
     id="namedview7"
     pagecolor="#ffffff"
     bordercolor="#666666"
     borderopacity="1.0"
     inkscape:pageshadow="2"
     inkscape:pageopacity="0.0"
     inkscape:pagecheckerboard="0"
     inkscape:document-units="mm"
     showgrid="false"
     inkscape:zoom="2.1997092"
     inkscape:cx="252.98799"
     inkscape:cy="230.48501"
     inkscape:window-width="2560"
     inkscape:window-height="1377"
     inkscape:window-x="-8"
     inkscape:window-y="-8"
     inkscape:window-maximized="1"
     inkscape:current-layer="layer1"
     units="px"
     width="384px">
    <inkscape:grid
       type="xygrid"
       id="grid3982" />
  </sodipodi:namedview>
  <defs
     id="defs2" />
  <g
     inkscape:groupmode="layer"
     id="layer2"
     inkscape:label="Layer 2">
    <path
       stroke="none"
       fill="#4f3f2f"
       d="m 71.213835,22.315223 q -1.164293,0.522531 -2.569809,0.63098 -1.301671,0.115375 -2.44305,-0.106024 0.664705,6.13429 -5.227813,12.027246 l -0.768037,0.713203 q -0.677112,0.624498 -0.569373,1.421358 0.08956,0.814596 0.881132,1.341174 0.791566,0.526588 1.808507,0.436444 1.021237,-0.05826 1.698349,-0.682764 l 0.913504,-0.855114 q 7.270168,-7.273069 6.27659,-14.926503"
       id="path1108-1"
       style="stroke-width:0.512268" />
    <path
       stroke="none"
       fill="#eeecec"
       d="m 72.964135,25.840661 c 1.013581,-0.168082 2.004509,-0.515445 2.972785,-1.042089 2.068587,-1.125105 3.462934,-2.786761 4.183041,-4.984966 0.731019,-2.231507 -0.622226,-5.782802 -1.654112,-7.767139 -1.042983,-2.005668 8.392473,-8.6146884 5.573248,-6.7164264 -1.883375,1.2681283 -10.565987,1.8002097 -12.634576,2.9253149 -2.068586,1.1251041 -6.469961,4.8315355 -7.19007,7.0297375 -0.731015,2.231511 -0.575033,4.350101 0.467946,6.35577 0.532587,1.024171 1.235491,1.887279 2.108713,2.589322 0.784641,0.585992 1.70659,1.028871 2.765849,1.328636 1.136557,0.339841 2.272282,0.433788 3.407176,0.28184"
       id="path1106-2"
       style="stroke-width:0.736285"
       sodipodi:nodetypes="csssssssccc" />
  </g>
  <g
     inkscape:label="Layer 1"
     inkscape:groupmode="layer"
     id="layer1">
    <path
       stroke="none"
       fill="#eeecec"
       d="m 16.168796,38.486089 q 0.170399,-4.551634 3.786662,-7.80767 3.805596,-3.409463 9.163723,-3.409463 h 36.23837 q 5.35813,0 9.144794,3.409463 3.635196,3.256036 3.805595,7.80767 v 30.088507 q -0.170399,4.534585 -3.805595,7.790623 -3.786664,3.426511 -9.144794,3.426511 h -36.23837 q -5.358127,0 -9.163723,-3.426511 -3.616263,-3.256038 -3.786662,-7.790623 V 38.486089"
       id="path1302"
       style="stroke-width:0.359312" />
    <path
       stroke="none"
       fill="#33291e"
       d="m 39.786441,53.613133 0.92504,0.106001 q 1.778925,0 3.012314,-1.404497 1.257105,-1.377998 1.257105,-3.365494 l -0.09489,-1.033501 0.569257,-0.0265 q 2.34818,0 4.032229,1.854998 1.589173,1.775496 1.660331,4.266494 v 0.2385 q 0,2.649996 -1.660331,4.504993 -1.684049,1.854997 -4.032229,1.854997 -2.3719,0 -4.055949,-1.854997 -1.636609,-1.854997 -1.636609,-4.504993 v -0.238497 l 0.02372,-0.397501 M 36.892712,51.09564 q -0.426943,1.377997 -0.450663,2.941495 v 0.211999 q 0,4.186993 2.656528,7.128489 2.63281,2.941495 6.356692,2.941495 3.747602,0 6.38041,-2.941495 2.632809,-2.941496 2.632809,-7.128489 v -0.211999 q -0.07116,-4.027994 -2.632809,-6.889989 -2.632808,-2.967994 -6.38041,-2.967994 -1.494298,0 -2.822561,0.476999 -0.877603,-0.476999 -1.92124,-0.476999 -1.778924,0 -3.03603,1.377996 -1.233389,1.404499 -1.233389,3.391997 0,1.165996 0.450663,2.146495 m -6.570163,4.478492 -0.04744,-1.324998 v -0.211999 q 0.07116,-6.889989 4.435451,-11.765981 4.435452,-4.98199 10.744707,-4.98199 6.285535,0 10.744706,4.98199 4.364296,4.875992 4.435452,11.765981 v 0.211999 l -0.02373,1.324998 q -0.403223,6.20099 -4.411734,10.679484 -4.459171,4.955491 -10.744705,4.955491 -6.309254,0 -10.744706,-4.955491 -4.008499,-4.478492 -4.388002,-10.679481"
       id="path898"
       style="stroke-width:0.501419" />
    <path
       stroke="none"
       fill="#ffffff"
       d="m 42.632721,44.656148 q 1.328262,-0.476999 2.82256,-0.476999 3.747602,0 6.380412,2.967993 2.561651,2.861995 2.632807,6.889991 v 0.211997 q 0,4.186994 -2.632807,7.128489 -2.63281,2.941496 -6.380412,2.941496 -3.723882,0 -6.356691,-2.941496 -2.656529,-2.941495 -2.656529,-7.128489 v -0.211997 q 0.02373,-1.563499 0.450663,-2.941497 0.616694,-2.199497 2.205866,-3.948494 1.565454,-1.775496 3.534131,-2.490994 m -2.84628,8.956985 -0.02372,0.3975 v 0.238497 q 0,2.649997 1.636609,4.504994 1.684049,1.854997 4.05595,1.854997 2.34818,0 4.032229,-1.854997 1.66033,-1.854997 1.66033,-4.504994 v -0.238497 q -0.07116,-2.490997 -1.66033,-4.266494 -1.684049,-1.854998 -4.032229,-1.854998 l -0.569256,0.0265 q -2.016115,0.212001 -3.486694,1.8285 -1.446858,1.642995 -1.61289,3.868992"
       id="path900"
       style="fill:#ffffff;stroke-width:0.501419" />
    <path
       stroke="none"
       fill="#000000"
       fill-opacity="0.101961"
       d="m 61.364668,56.054434 0.02372,1.324998 q 0,7.048988 -4.435452,12.00448 -4.459171,4.955492 -10.744706,4.955492 -6.309255,0 -10.744706,-4.955492 -4.435452,-4.955492 -4.435452,-12.00448 l 0.04744,-1.324998 q 0.379503,6.200989 4.388013,10.679483 4.435453,4.955492 10.744707,4.955492 6.285534,0 10.744705,-4.955492 4.008511,-4.478494 4.411734,-10.679483"
       id="path902"
       style="stroke-width:0.501419" />
    <path
       stroke="none"
       fill="#4f3f2f"
       d="m 36.892724,51.095636 q -0.450663,-0.980498 -0.450663,-2.146495 0,-1.987498 1.233389,-3.391996 1.257107,-1.377996 3.036031,-1.377996 1.043637,0 1.92124,0.476999 -1.968677,0.715498 -3.534131,2.490994 -1.589172,1.748997 -2.205866,3.948494 m 2.893717,2.517497 q 0.166025,-2.225997 1.612891,-3.868994 1.470579,-1.616497 3.486693,-1.828498 l 0.09489,1.0335 q 0,1.987496 -1.257105,3.365495 -1.233389,1.404497 -3.012314,1.404497 l -0.92504,-0.106001"
       id="path904"
       style="stroke-width:0.501419" />
    <path
       stroke="none"
       fill="#eeecec"
       d="m 21.185844,70.078455 q -0.304113,-0.830509 -0.304113,-1.767494 0,-2.001744 1.433675,-3.407222 1.455396,-1.426774 3.475575,-1.426774 2.041899,0 3.497298,1.426774 1.433673,1.405478 1.433673,3.407222 0,2.001741 -1.433673,3.40722 -1.455399,1.426774 -3.497298,1.426774 -1.042672,0 -1.976733,-0.383314 -0.803727,-0.362015 -1.498842,-1.04346 -0.760282,-0.724034 -1.129562,-1.639726"
       id="path1106-0"
       style="stroke-width:0.430153" />
    <path
       stroke="none"
       fill="#eeecec"
       d="m 71.439249,70.115808 q 0.322931,-0.906734 0.322931,-1.929716 0,-2.185465 -1.522394,-3.719939 -1.545461,-1.557724 -3.690655,-1.557724 -2.168258,0 -3.713722,1.557724 -1.522393,1.534474 -1.522393,3.719939 0,2.185462 1.522393,3.719937 1.545464,1.557724 3.713722,1.557724 1.107196,0 2.099059,-0.418494 0.853465,-0.395241 1.591596,-1.13923 0.80733,-0.790486 1.199463,-1.790221"
       id="path1106-0-2"
       style="stroke-width:0.463158" />
    <path
       stroke="none"
       fill="#eeecec"
       d="m 35.410473,59.346878 c -0.201914,-0.186209 -0.373419,-0.40707 -0.514519,-0.662588 -0.301435,-0.54588 -0.376831,-1.10539 -0.226187,-1.678533 0.152926,-0.581827 0.455927,-2.190856 0.859572,-2.598244 0,0 0.730425,1.721953 1.313055,1.918301 0.573938,0.193411 1.209058,0.146039 1.510492,0.691923 0.301437,0.54588 0.649857,0.817195 0.499214,1.390337 -0.152928,0.581825 -0.487387,1.007945 -1.003377,1.27836 -0.263485,0.138083 -0.542107,0.21671 -0.835868,0.23588 -0.257619,0.0077 -0.525564,-0.03531 -0.803837,-0.129088 -0.301152,-0.09676 -0.567335,-0.245542 -0.79854,-0.446356"
       id="path1106-3"
       style="fill:#ff0000;stroke-width:0.192334"
       sodipodi:nodetypes="csssssssccc" />
    <path
       stroke="none"
       fill="#eeecec"
       d="m 49.612118,42.906652 c 0.231497,0.147825 0.439148,0.335107 0.622958,0.56185 0.39268,0.484407 0.565234,1.021958 0.517663,1.612656 -0.04829,0.599647 -0.0638,2.236883 -0.389562,2.70887 0,0 -1.021683,-1.566782 -1.629752,-1.657679 -0.598996,-0.08953 -1.215905,0.06872 -1.608585,-0.415691 -0.392681,-0.484406 -0.78336,-0.690265 -0.73579,-1.280961 0.04829,-0.599646 0.302658,-1.077914 0.763093,-1.434803 0.235117,-0.18224 0.495583,-0.30861 0.781403,-0.37911 0.252252,-0.05287 0.523589,-0.0576 0.814012,-0.01419 0.313471,0.04233 0.601658,0.142013 0.864556,0.299068"
       id="path1106-3-9"
       style="fill:#ff0000;stroke-width:0.192334"
       sodipodi:nodetypes="csssssssccc" />
    <path
       stroke="none"
       fill="#eeecec"
       d="m 55.263742,60.282824 c -0.114872,0.249495 -0.272084,0.480748 -0.47164,0.693764 -0.426326,0.455075 -0.935321,0.699329 -1.526988,0.732763 -0.60063,0.03394 -2.224683,0.241867 -2.736688,-0.01648 0,0 1.412803,-1.225817 1.419921,-1.840602 0.007,-0.605609 -0.233905,-1.195171 0.192425,-1.650247 0.426325,-0.455076 0.576979,-0.87018 1.168644,-0.903615 0.600629,-0.03394 1.109119,0.152822 1.525468,0.560281 0.212603,0.208066 0.373315,0.448864 0.482137,0.722398 0.08678,0.242685 0.12847,0.510842 0.125074,0.804471 8.18e-4,0.316315 -0.05863,0.615405 -0.178363,0.897266"
       id="path1106-3-9-5"
       style="fill:#ff0000;stroke-width:0.192334"
       sodipodi:nodetypes="csssssssccc" />
    <path
       stroke="none"
       fill="#33291e"
       d="m 24.557608,39.403305 0.565888,0.05826 q 1.088249,0 1.842769,-0.771988 0.769027,-0.757422 0.769027,-1.849858 l -0.05805,-0.568069 0.34824,-0.01457 q 1.436488,0 2.466696,1.019608 0.972169,0.97591 1.015699,2.345097 v 0.131093 q 0,1.456582 -1.015699,2.47619 -1.030208,1.019607 -2.466696,1.019607 -1.450999,0 -2.481206,-1.019607 -1.001188,-1.019608 -1.001188,-2.47619 v -0.131091 l 0.01451,-0.218489 m -1.770216,-1.383752 q -0.261181,0.757422 -0.275692,1.616805 v 0.116527 q 0,2.3014 1.625119,3.918206 1.610608,1.616806 3.888674,1.616806 2.292577,0 3.903185,-1.616806 1.610607,-1.616806 1.610607,-3.918206 v -0.116527 q -0.04353,-2.214004 -1.610607,-3.787113 -1.610608,-1.631371 -3.903185,-1.631371 -0.914129,0 -1.726687,0.262185 -0.53687,-0.262185 -1.17531,-0.262185 -1.088247,0 -1.857276,0.757422 -0.75452,0.771989 -0.75452,1.864426 0,0.640895 0.275692,1.179831 m -4.019265,2.461623 -0.02902,-0.728291 v -0.116527 q 0.04353,-3.787113 2.713365,-6.467224 2.713366,-2.738373 6.573022,-2.738373 3.845144,0 6.57302,2.738373 2.669837,2.680111 2.713366,6.467224 v 0.116527 l -0.01452,0.728291 q -0.24667,3.408402 -2.698856,5.870027 -2.727876,2.723807 -6.57302,2.723807 -3.859655,0 -6.573021,-2.723807 -2.452179,-2.461624 -2.684339,-5.870025"
       id="path898-5"
       style="stroke-width:0.290758" />
    <path
       stroke="none"
       fill="#ffffff"
       d="m 26.298806,34.480057 q 0.812557,-0.262184 1.726686,-0.262184 2.292578,0 3.903186,1.631371 1.567077,1.573108 1.610607,3.787114 v 0.116526 q 0,2.3014 -1.610607,3.918205 -1.610608,1.616807 -3.903186,1.616807 -2.278066,0 -3.888673,-1.616807 Q 22.5117,42.054284 22.5117,39.752884 v -0.116526 q 0.01452,-0.859384 0.275691,-1.616807 0.37726,-1.208963 1.349428,-2.170307 0.957658,-0.975909 2.161987,-1.369187 m -1.741198,4.923248 -0.01451,0.218488 v 0.131091 q 0,1.456582 1.001188,2.476189 1.030208,1.019608 2.481207,1.019608 1.436488,0 2.466696,-1.019608 1.015699,-1.019607 1.015699,-2.476189 v -0.131091 q -0.04353,-1.369188 -1.015699,-2.345098 -1.030208,-1.019609 -2.466696,-1.019609 l -0.34824,0.01457 q -1.233348,0.116527 -2.132967,1.005042 -0.885109,0.90308 -0.986678,2.12661"
       id="path900-04"
       style="fill:#ffffff;stroke-width:0.290758" />
    <path
       stroke="none"
       fill="#4f3f2f"
       d="M 22.787391,38.019551 Q 22.5117,37.480616 22.5117,36.839721 q 0,-1.092438 0.75452,-1.864426 0.769029,-0.757422 1.857276,-0.757422 0.63844,0 1.17531,0.262184 -1.204329,0.393278 -2.161987,1.369187 -0.972168,0.961344 -1.349428,2.170307 m 1.770217,1.383754 q 0.101565,-1.223529 0.986678,-2.12661 0.899619,-0.888515 2.132968,-1.005042 l 0.05804,0.568068 q 0,1.092435 -0.769028,1.849859 -0.75452,0.771988 -1.842768,0.771988 l -0.56589,-0.05826"
       id="path904-5"
       style="stroke-width:0.290758" />
    <path
       stroke="none"
       fill="#eeecec"
       d="m 21.880631,42.554884 c -0.123519,-0.102351 -0.228437,-0.223748 -0.314755,-0.364195 -0.1844,-0.300045 -0.230523,-0.607583 -0.138368,-0.922613 0.09355,-0.319804 0.278911,-1.204214 0.525839,-1.428137 0,0 0.446834,0.946479 0.803255,1.054403 0.351104,0.106309 0.739635,0.08027 0.924036,0.380319 0.184403,0.300045 0.397546,0.449175 0.305391,0.764204 -0.09355,0.319804 -0.298156,0.554022 -0.61381,0.702657 -0.161186,0.07589 -0.331632,0.119116 -0.511339,0.129653 -0.157596,0.0042 -0.321511,-0.01941 -0.491742,-0.07095 -0.184229,-0.05319 -0.347065,-0.134963 -0.488504,-0.245341"
       id="path1106-3-5"
       style="fill:#ff0000;stroke-width:0.111529"
       sodipodi:nodetypes="csssssssccc" />
    <path
       stroke="none"
       fill="#33291e"
       d="m 59.180038,69.379176 0.565888,0.05826 q 1.08825,0 1.84277,-0.771988 0.769027,-0.757422 0.769027,-1.849858 l -0.05805,-0.568069 0.348239,-0.01457 q 1.436489,0 2.466697,1.019608 0.972169,0.97591 1.015699,2.345097 v 0.131093 q 0,1.456582 -1.015699,2.47619 -1.030208,1.019607 -2.466696,1.019607 -1.450999,0 -2.481206,-1.019607 -1.001188,-1.019608 -1.001188,-2.47619 v -0.131091 l 0.01451,-0.218489 m -1.770216,-1.383752 q -0.261181,0.757422 -0.275692,1.616805 v 0.116527 q 0,2.3014 1.625119,3.918206 1.610608,1.616806 3.888674,1.616806 2.292577,0 3.903185,-1.616806 1.610607,-1.616806 1.610607,-3.918206 v -0.116527 q -0.04353,-2.214004 -1.610607,-3.787113 -1.610608,-1.631371 -3.903185,-1.631371 -0.914129,0 -1.726687,0.262185 -0.53687,-0.262185 -1.17531,-0.262185 -1.088247,0 -1.857276,0.757422 -0.75452,0.771989 -0.75452,1.864426 0,0.640895 0.275692,1.179831 m -4.019265,2.461623 -0.02902,-0.728291 v -0.116527 q 0.04353,-3.787113 2.713365,-6.467224 2.713366,-2.738373 6.573022,-2.738373 3.845144,0 6.57302,2.738373 2.669837,2.680111 2.713366,6.467224 v 0.116527 l -0.01452,0.728291 q -0.24667,3.408402 -2.698856,5.870027 -2.727876,2.723807 -6.57302,2.723807 -3.859655,0 -6.573021,-2.723807 -2.452179,-2.461624 -2.684339,-5.870025"
       id="path898-5-7"
       style="stroke-width:0.290758" />
    <path
       stroke="none"
       fill="#ffffff"
       d="m 60.921237,64.455928 q 0.812556,-0.262184 1.726686,-0.262184 2.292577,0 3.903185,1.631371 1.567077,1.573108 1.610608,3.787114 v 0.116526 q 0,2.3014 -1.610608,3.918205 -1.610608,1.616807 -3.903185,1.616807 -2.278067,0 -3.888674,-1.616807 -1.625119,-1.616805 -1.625119,-3.918205 v -0.116526 q 0.01452,-0.859384 0.275691,-1.616807 0.37726,-1.208963 1.349428,-2.170307 0.957658,-0.975909 2.161987,-1.369187 m -1.741198,4.923248 -0.01451,0.218488 v 0.131091 q 0,1.456582 1.001188,2.476189 1.030208,1.019608 2.481207,1.019608 1.436488,0 2.466696,-1.019608 1.015699,-1.019607 1.015699,-2.476189 v -0.131091 q -0.04353,-1.369188 -1.015699,-2.345098 -1.030208,-1.019609 -2.466696,-1.019609 l -0.34824,0.01457 q -1.233348,0.116527 -2.132967,1.005042 -0.885109,0.90308 -0.986678,2.12661"
       id="path900-04-0"
       style="fill:#ffffff;stroke-width:0.290758" />
    <path
       stroke="none"
       fill="#4f3f2f"
       d="m 57.409822,67.995422 q -0.275692,-0.538935 -0.275692,-1.17983 0,-1.092438 0.75452,-1.864426 0.76903,-0.757422 1.857276,-0.757422 0.63844,0 1.175311,0.262184 -1.20433,0.393278 -2.161988,1.369187 -0.972167,0.961344 -1.349427,2.170307 m 1.770216,1.383754 q 0.101565,-1.223529 0.986679,-2.12661 0.899619,-0.888515 2.132967,-1.005042 l 0.05804,0.568068 q 0,1.092435 -0.769028,1.849859 -0.75452,0.771988 -1.842768,0.771988 l -0.56589,-0.05826"
       id="path904-5-1"
       style="stroke-width:0.290758" />
    <path
       stroke="none"
       fill="#eeecec"
       d="m 56.503062,72.530755 c -0.123519,-0.102351 -0.228437,-0.223748 -0.314756,-0.364195 -0.184399,-0.300045 -0.230523,-0.607583 -0.138368,-0.922613 0.09355,-0.319804 0.278911,-1.204214 0.52584,-1.428137 0,0 0.446833,0.946479 0.803255,1.054403 0.351104,0.106309 0.739635,0.08027 0.924036,0.380319 0.184402,0.300045 0.397546,0.449175 0.305391,0.764204 -0.09355,0.319804 -0.298156,0.554022 -0.61381,0.702657 -0.161186,0.07589 -0.331632,0.119116 -0.511339,0.129653 -0.157597,0.0042 -0.321511,-0.01941 -0.491742,-0.07095 -0.184229,-0.05319 -0.347065,-0.134963 -0.488504,-0.245341"
       id="path1106-3-5-9"
       style="fill:#ff0000;stroke-width:0.111529"
       sodipodi:nodetypes="csssssssccc" />
    <path
       stroke="none"
       fill="#eeecec"
       d="m 68.648201,73.045201 c -0.07027,0.137137 -0.166446,0.264246 -0.288523,0.381331 -0.260803,0.250134 -0.572178,0.38439 -0.934128,0.402766 -0.367432,0.01866 -1.360938,0.132943 -1.674155,-0.009 0,0 0.864275,-0.673776 0.868629,-1.011696 0.0043,-0.332875 -0.14309,-0.656931 0.117716,-0.907066 0.260802,-0.250134 0.352963,-0.478298 0.714912,-0.496675 0.367432,-0.01866 0.678498,0.084 0.933198,0.307961 0.130057,0.114364 0.228372,0.24672 0.294944,0.397069 0.05308,0.133393 0.07859,0.280787 0.07651,0.442181 5.01e-4,0.173864 -0.03587,0.33826 -0.109114,0.493187"
       id="path1106-3-9-5-3-3"
       style="fill:#ff0000;stroke-width:0.111529"
       sodipodi:nodetypes="csssssssccc" />
    <path
       stroke="none"
       fill="#33291e"
       d="m 69.636461,17.565989 0.393574,0.03926 c 0.504581,0 0.931794,-0.173418 1.281638,-0.520254 0.356571,-0.340293 0.534856,-0.755842 0.534856,-1.246648 l -0.04037,-0.38283 0.2422,-0.0098 c 0.666048,0 1.237907,0.229043 1.715578,0.687129 0.45076,0.438453 0.686232,0.965252 0.706415,1.580396 v 0.08835 c 0,0.654409 -0.235472,1.210656 -0.706415,1.668741 -0.477671,0.458085 -1.04953,0.687128 -1.715578,0.687128 -0.672776,0 -1.248,-0.229043 -1.725671,-0.687128 -0.464215,-0.458085 -0.696322,-1.014332 -0.696322,-1.668741 v -0.08834 l 0.01009,-0.147243 m -1.23118,-0.932531 c -0.1211,0.340291 -0.185014,0.703488 -0.191742,1.089589 v 0.07853 c 0,1.033965 0.376755,1.914144 1.130264,2.640537 0.746781,0.726392 1.648301,1.089588 2.70456,1.089588 1.062986,0 1.96787,-0.363196 2.714651,-1.089588 0.746781,-0.726393 1.120172,-1.606572 1.120172,-2.640537 v -0.07853 c -0.02019,-0.994701 -0.393577,-1.845431 -1.120172,-2.552192 -0.746781,-0.732937 -1.651665,-1.099406 -2.714651,-1.099406 -0.423849,0 -0.824151,0.0589 -1.200905,0.17669 -0.248927,-0.117793 -0.521402,-0.17669 -0.817424,-0.17669 -0.504582,0 -0.935158,0.170146 -1.291729,0.510438 -0.349844,0.346837 -0.524766,0.765658 -0.524766,1.256465 0,0.287939 0.06391,0.552974 0.191742,0.795106 m -2.795384,1.658924 -0.02019,-0.490806 v -0.07853 c 0.02019,-1.701461 0.649232,-3.154248 1.887136,-4.358359 1.258091,-1.230288 2.781928,-1.845431 4.571513,-1.845431 1.782857,0 3.306694,0.615143 4.571513,1.845431 1.237907,1.204111 1.866951,2.656898 1.887131,4.358359 v 0.07853 l -0.0101,0.490806 c -0.114367,1.531315 -0.740047,2.849948 -1.877041,3.955897 -1.264819,1.223743 -2.788656,1.835615 -4.571513,1.835615 -1.789584,0 -3.313421,-0.611872 -4.571512,-1.835615 -1.136988,-1.105949 -1.759304,-2.424581 -1.866948,-3.955896"
       id="path898-9"
       style="fill:#800000;stroke-width:0.199059"
       sodipodi:nodetypes="ccccccccscscsccccscsssccscscscccccssccccssc" />
    <path
       stroke="none"
       fill="#ffffff"
       d="m 70.847458,14.248139 c 0.376754,-0.117793 0.777056,-0.17669 1.200905,-0.17669 1.062986,0 1.96787,0.366468 2.714651,1.099405 0.726598,0.706761 1.099989,1.557492 1.120172,2.552194 v 0.07853 c 0,1.033965 -0.373391,1.914143 -1.120172,2.640536 -0.746781,0.726393 -1.651665,1.08959 -2.714651,1.08959 -1.056259,0 -1.957779,-0.363197 -2.70456,-1.08959 -0.753509,-0.726393 -1.130264,-1.606571 -1.130264,-2.640536 v -0.07853 c 0.0067,-0.386101 0.07065,-0.749298 0.191742,-1.089591 0.174922,-0.543159 0.487763,-1.030694 0.938522,-1.462603 0.444032,-0.438453 0.94525,-0.746025 1.503655,-0.922715 m -1.210997,3.31785 -0.01009,0.147242 v 0.08835 c 0,0.654408 0.232107,1.210655 0.696322,1.668741 0.477671,0.458085 1.052894,0.687128 1.725671,0.687128 0.666048,0 1.237907,-0.229043 1.715578,-0.687128 0.470943,-0.458086 0.706415,-1.014333 0.706415,-1.668741 v -0.08835 c -0.02019,-0.615144 -0.255658,-1.141943 -0.706415,-1.580396 -0.477671,-0.458086 -1.04953,-0.687129 -1.715578,-0.687129 l -0.242199,0.0098 c -0.571859,0.05235 -1.06635,0.278125 -1.483472,0.677314 -0.410393,0.405733 -0.639136,0.88345 -0.686231,1.433153"
       id="path900-0"
       style="stroke-width:0.199059"
       sodipodi:nodetypes="csccssscsccccccscscscccccc" />
    <path
       stroke="none"
       fill="#eeecec"
       d="m 13.287436,75.620094 0.07378,-0.396159 q 0.644723,-2.832749 2.897407,-4.75714 2.747258,-2.330232 6.261359,-1.95087 3.5141,0.379361 5.735052,3.245931 1.849984,2.367291 1.932317,5.278528 l 8.09e-4,0.349107 -0.07199,0.377982 q -0.642942,2.814572 -2.912937,4.737094 -2.577224,2.201633 -5.86321,1.993854 l -0.380848,-0.04111 Q 17.773981,84.113456 15.629713,81.714396 L 15.20681,81.209509 q -1.832673,-2.365423 -1.916786,-5.258483 l -0.0026,-0.330928"
       id="path1126"
       style="stroke-width:0.356644" />
    <path
       stroke="none"
       fill="#dbdbdb"
       d="m 21.34001,84.498421 q -3.104981,5.983843 -7.875187,9.14274 -1.103205,0.725893 -2.371749,0.460363 -1.2649835,-0.301885 -1.9598395,-1.423946 -0.708605,-1.160286 -0.4402,-2.47227 0.270184,-1.330161 1.3560805,-2.057922 2.629962,-1.846924 4.601472,-4.830351 l 0.285064,-0.410089 0.694058,-1.192555 q 2.144269,2.399061 5.329462,2.742916 l 0.380839,0.04111"
       id="path1128"
       style="stroke-width:0.356644" />
    <path
       stroke="none"
       fill="#eeecec"
       d="m 87.741796,62.261162 -0.076,-0.396159 q -0.66447,-2.832749 -2.98613,-4.75714 -2.83138,-2.330232 -6.45309,-1.95087 -3.621705,0.379361 -5.910665,3.245931 -1.906632,2.367291 -1.991486,5.278528 l -8.34e-4,0.349107 0.07419,0.377982 q 0.66263,2.814572 3.002134,4.737094 2.656141,2.201633 6.042751,1.993854 l 0.39251,-0.04111 q 3.28273,-0.343855 5.49266,-2.742915 l 0.43585,-0.504887 q 1.88879,-2.365423 1.97548,-5.258483 l 0.003,-0.330928"
       id="path1126-5"
       style="stroke-width:0.362063" />
    <path
       stroke="none"
       fill="#dbdbdb"
       d="m 79.442636,71.139489 q 3.20006,5.983843 8.11634,9.14274 1.13698,0.725893 2.44437,0.460363 1.30372,-0.301885 2.01985,-1.423946 0.73031,-1.160286 0.45368,-2.47227 -0.27846,-1.330161 -1.3976,-2.057922 -2.7105,-1.846924 -4.74238,-4.830351 l -0.29379,-0.410089 -0.71531,-1.192555 q -2.20993,2.399061 -5.49266,2.742916 l -0.3925,0.04111"
       id="path1128-8"
       style="stroke-width:0.362063" />
    <path
       stroke="none"
       fill="#eeecec"
       d="m 15.35942,72.749076 q -0.601819,-3.396226 -2.420021,-6.277408 -0.122345,-0.213508 -0.06489,-0.4866 0.05449,-0.2468 0.284106,-0.393953 0.214992,-0.13549 0.489567,-0.09118 4.061182,0.937689 6.864035,3.823511 l 0.673627,0.755009 0.625288,0.829432 q 0.116618,0.146295 0.135281,0.334786 l -0.0795,0.350482 q -1.883344,3.475163 -5.690075,3.231855 -0.249768,-0.02819 -0.417485,-0.19357 -0.169201,-0.152231 -0.181929,-0.393305 l -0.119607,-0.945423 -0.09839,-0.543633"
       id="path1096"
       style="stroke-width:0.264583" />
    <path
       stroke="none"
       fill="#dbdbdb"
       d="m 15.35942,72.749076 0.09839,0.543633 0.119607,0.945424 q 0.01273,0.241074 0.181929,0.393305 0.167717,0.165376 0.417485,0.193569 3.806731,0.243309 5.690075,-3.231855 l 0.0795,-0.350481 q -0.01867,-0.188492 -0.135281,-0.334787 l -0.625288,-0.829432 -0.673627,-0.755009 0.396063,-0.08843 q 1.683483,-0.289248 2.273786,0.496295 0.588818,0.798689 0.0289,2.692525 -0.600834,1.902529 -2.407059,3.043279 -1.79308,1.142233 -3.64683,1.052805 -1.869865,-0.06462 -2.458682,-0.863309 -0.590303,-0.785543 0.21133,-2.226072 0.186151,-0.351757 0.449692,-0.681465"
       id="path1098"
       style="stroke-width:0.264583" />
    <path
       stroke="none"
       fill="#eeecec"
       d="m 77.904651,53.966694 q 3.307292,-0.978958 5.966354,-3.108854 0.198438,-0.145521 0.47625,-0.119063 0.251354,0.02646 0.423334,0.238125 0.15875,0.198438 0.14552,0.47625 -0.47625,4.14073 -3.029479,7.249584 l -0.674687,0.754062 -0.754063,0.714375 q -0.132291,0.132292 -0.3175,0.171979 l -0.357187,-0.03969 q -3.664479,-1.481667 -3.849688,-5.291667 0,-0.251354 0.145521,-0.436562 0.132292,-0.185209 0.370417,-0.224896 l 0.926042,-0.224896 0.529166,-0.15875"
       id="path1096-0"
       style="stroke-width:0.264583" />
    <path
       stroke="none"
       fill="#dbdbdb"
       d="m 77.904651,53.966694 -0.529166,0.15875 -0.926042,0.224896 q -0.238125,0.03969 -0.370417,0.224896 -0.145521,0.185208 -0.145521,0.436562 0.185209,3.81 3.849688,5.291667 l 0.357187,0.03969 q 0.185209,-0.03969 0.3175,-0.171979 l 0.754063,-0.714375 0.674687,-0.754062 0.132292,0.383646 q 0.47625,1.640416 -0.238125,2.315104 -0.727604,0.674687 -2.672292,0.330729 -1.957916,-0.383646 -3.294062,-2.050521 -1.336146,-1.653646 -1.455208,-3.505729 -0.145521,-1.865313 0.582083,-2.54 0.714375,-0.674688 2.235729,-0.03969 0.370417,0.145521 0.727604,0.370417"
       id="path1098-6"
       style="stroke-width:0.264583" />
  </g>
</svg>
