<?xml version="1.0" encoding="UTF-8" standalone="no"?>
<!-- Created with Inkscape (http://www.inkscape.org/) -->

<svg
   width="256"
   height="384"
   viewBox="0 0 67.733334 101.6"
   version="1.1"
   id="svg5"
   inkscape:version="1.1.2 (b8e25be833, 2022-02-05)"
   sodipodi:docname="antena_monster_2_sleepy.svg"
   inkscape:export-filename="C:\Users\David Dalisay\KennyJam22\Sprites\green_monster.png"
   inkscape:export-xdpi="18"
   inkscape:export-ydpi="18"
   xmlns:inkscape="http://www.inkscape.org/namespaces/inkscape"
   xmlns:sodipodi="http://sodipodi.sourceforge.net/DTD/sodipodi-0.dtd"
   xmlns="http://www.w3.org/2000/svg"
   xmlns:svg="http://www.w3.org/2000/svg">
  <sodipodi:namedview
     id="namedview7"
     pagecolor="#ffffff"
     bordercolor="#666666"
     borderopacity="1.0"
     inkscape:pageshadow="2"
     inkscape:pageopacity="0.0"
     inkscape:pagecheckerboard="0"
     inkscape:document-units="mm"
     showgrid="false"
     inkscape:zoom="2.1997092"
     inkscape:cx="163.43069"
     inkscape:cy="190.02512"
     inkscape:window-width="2560"
     inkscape:window-height="1377"
     inkscape:window-x="-8"
     inkscape:window-y="-8"
     inkscape:window-maximized="1"
     inkscape:current-layer="layer1"
     units="px"
     width="384px">
    <inkscape:grid
       type="xygrid"
       id="grid3982" />
  </sodipodi:namedview>
  <defs
     id="defs2" />
  <g
     inkscape:groupmode="layer"
     id="layer2"
     inkscape:label="Layer 2">
    <path
       stroke="none"
       fill="#eeecec"
       d="M 7.6804083,11.323861 Q 6.9654393,11.20793 6.2824283,10.844689 4.8232689,10.068671 4.3153127,8.5525069 3.7996601,7.0133722 4.5275419,5.64472 5.2632496,4.2613534 6.8276773,3.8284529 q 1.541077,-0.4264371 3.000238,0.3495795 1.4591587,0.7760158 1.9671157,2.2921778 0.515651,1.5391364 -0.220056,2.9225041 -0.375681,0.7063997 -0.991642,1.1906187 -0.553478,0.404176 -1.3006667,0.610933 -0.801715,0.234398 -1.602258,0.129595"
       id="path1106"
       style="stroke-width:0.34238" />
    <path
       stroke="none"
       fill="#4f3f2f"
       d="m 7.6804083,11.323861 q 0.800543,0.104803 1.602258,-0.129595 0.7471887,-0.206757 1.3006667,-0.610933 1.57109,4.384815 6.646845,7.159738 l 0.644271,0.323758 q 0.566654,0.282479 0.759061,0.856785 0.20793,0.582559 -0.05831,1.120615 -0.26623,0.53806 -0.84998,0.699587 -0.576044,0.184502 -1.142699,-0.09798 l -0.768452,-0.3898 Q 9.5508763,16.830715 7.6804083,11.323861"
       id="path1108"
       style="stroke-width:0.34238" />
    <path
       stroke="none"
       fill="#eeecec"
       d="m 61.383334,12.7 q 0.671932,-0.115931 1.31383,-0.479172 1.371326,-0.776017 1.848706,-2.2921807 0.484613,-1.5391348 -0.199454,-2.907787 -0.691423,-1.3833666 -2.16168,-1.8162671 -1.448313,-0.4264371 -2.81964,0.3495795 -1.371326,0.7760158 -1.848707,2.2921778 -0.484611,1.5391368 0.20681,2.9225035 0.353067,0.7064 0.931951,1.190619 0.520161,0.404175 1.222374,0.610932 0.753456,0.234398 1.50581,0.129595"
       id="path1106-2"
       style="stroke-width:0.331915" />
    <path
       stroke="none"
       fill="#4f3f2f"
       d="m 61.383334,12.7 q -0.752354,0.104803 -1.50581,-0.129595 -0.702213,-0.206757 -1.222374,-0.610932 -1.476519,4.384813 -6.246741,7.159736 l -0.60549,0.323758 q -0.532544,0.282479 -0.713369,0.856785 -0.195414,0.582559 0.0548,1.120615 0.250204,0.53806 0.798816,0.699587 0.541369,0.184502 1.073914,-0.09798 l 0.722196,-0.3898 Q 59.625458,18.206853 61.383334,12.7"
       id="path1108-1"
       style="stroke-width:0.331915" />
  </g>
  <g
     inkscape:label="Layer 1"
     inkscape:groupmode="layer"
     id="layer1">
    <path
       stroke="none"
       fill="#eeecec"
       d="m 9.0722153,29.104167 q 0.132138,-4.551634 2.9364117,-7.80767 2.951095,-3.409463 7.106119,-3.409463 h 28.101477 q 4.155026,0 7.09144,3.409463 2.818956,3.256036 2.951094,7.80767 v 30.088507 q -0.132138,4.534585 -2.951094,7.790623 -2.936414,3.426511 -7.09144,3.426511 H 19.114746 q -4.155024,0 -7.106119,-3.426511 Q 9.2043533,63.727259 9.0722153,59.192674 V 29.104167"
       id="path1302"
       style="stroke-width:0.316411" />
    <path
       stroke="none"
       fill="#eeecec"
       d="m 63.5,18.520833 0.01,0.02209 q 0.994252,3.026529 -0.114976,6.214768 -1.294101,3.719613 -4.688501,5.461273 -3.390213,1.780349 -6.932363,0.54799 -3.526405,-1.226881 -5.095201,-4.732532 -1.58035,-3.472438 -0.28625,-7.192051 l 0.08088,-0.232475 q 1.168008,-1.175942 2.757898,-2.093416 3.868421,-2.19105 8.054152,-1.59109 4.185732,0.59996 6.214394,3.595451 m -3.260378,7.037828 q 0.658604,-1.893018 -0.148613,-3.681704 -0.807218,-1.788688 -2.601907,-2.413083 -1.794689,-0.624395 -3.522076,0.282472 -1.727385,0.906866 -2.38599,2.799884 -0.381297,1.095957 -0.279766,2.173742 l 0.223153,-0.387747 q 0.503484,-0.736985 1.091894,-1.109346 0.576854,-0.339152 0.904278,-0.113546 0.358907,0.236568 0.228053,0.917037 -0.09937,0.691427 -0.587118,1.433887 l -0.03308,0.04434 0.09027,-0.0058 1.43,0.404447 q 0.573533,0.329842 0.545078,0.766717 -0.03841,0.414789 -0.676656,0.676736 -0.628272,0.284031 -1.459035,0.236999 l -0.459714,-0.04827 q 0.705684,0.710903 1.713229,1.06144 1.794688,0.624395 3.532041,-0.260389 1.737352,-0.884784 2.395957,-2.777802"
       id="path1118"
       style="stroke-width:0.34238" />
    <path
       stroke="none"
       fill="#dbdbdb"
       d="m 60.239622,25.55866 q -0.658605,1.893019 -2.395957,2.777802 -1.737353,0.884785 -3.532042,0.26039 -1.007544,-0.350537 -1.713229,-1.061439 l 0.459719,0.04826 q 0.830762,0.04703 1.459034,-0.236998 0.638238,-0.261951 0.676656,-0.676736 0.02846,-0.436869 -0.545077,-0.766717 l -1.43,-0.404447 -0.09027,0.0058 0.03308,-0.04434 q 0.487742,-0.742462 0.587118,-1.433887 0.130849,-0.680477 -0.228054,-0.917035 -0.327425,-0.225601 -0.904276,0.113543 -0.58841,0.372361 -1.091895,1.109347 l -0.223152,0.387747 q -0.101532,-1.077783 0.279766,-2.173741 0.658604,-1.893017 2.38599,-2.799883 1.727387,-0.906868 3.522075,-0.282473 1.79469,0.624395 2.601908,2.413084 0.807217,1.788686 0.148612,3.681703"
       id="path1120"
       style="stroke-width:0.34238" />
    <path
       stroke="none"
       fill="#eeecec"
       d="m 2.6458333,18.520833 -0.00718,0.02193 q -0.6472798,2.99924 0.6292282,6.124265 1.4892595,3.645864 4.7187282,5.308426 3.2289353,1.700767 6.3414253,0.42938 3.098657,-1.265738 4.227207,-4.746446 1.141848,-3.448155 -0.347411,-7.094019 l -0.09308,-0.227865 Q 16.954798,17.196006 15.433572,16.317032 11.735701,14.219066 7.9853819,14.877364 4.235062,15.535661 2.6458343,18.520838 m 3.5550129,6.885313 Q 5.4429205,23.550667 6.02489,21.774598 q 0.5819692,-1.77607 2.1589655,-2.42024 1.5769941,-0.644169 3.2221855,0.222152 1.645188,0.866321 2.403115,2.721805 0.438799,1.074228 0.437617,2.138259 L 14.01138,24.057928 q -0.519441,-0.718422 -1.08521,-1.076068 -0.552471,-0.325093 -0.830747,-0.09747 -0.305943,0.238916 -0.12965,0.907597 0.148621,0.679976 0.654247,1.404044 l 0.03378,0.04318 -0.08248,-0.0043 -1.264403,0.421531 q -0.492959,0.334302 -0.430227,0.76449 0.06991,0.408256 0.671608,0.656268 0.594507,0.269937 1.344935,0.210298 l 0.413387,-0.05492 Q 12.725834,27.944616 11.840505,28.306255 10.26351,28.950425 8.6111337,28.10603 6.9587611,27.261651 6.2008344,25.406167"
       id="path1118-2"
       style="stroke-width:0.324173" />
    <path
       stroke="none"
       fill="#dbdbdb"
       d="m 6.2008459,25.406145 q 0.7579268,1.855484 2.4103013,2.699879 1.6523758,0.844394 3.2293708,0.200225 0.885329,-0.361639 1.466116,-1.073676 l -0.413388,0.05492 q -0.750428,0.05964 -1.344935,-0.210298 -0.601694,-0.248013 -0.671607,-0.656267 -0.06274,-0.43018 0.430227,-0.76449 l 1.264403,-0.421532 0.08248,0.0043 -0.03378,-0.04318 q -0.505608,-0.724075 -0.654238,-1.404048 -0.176289,-0.668676 0.129649,-0.907597 0.278279,-0.227615 0.830746,0.09747 0.56577,0.357646 1.08521,1.07607 l 0.235393,0.378645 q 0.0012,-1.064032 -0.437615,-2.13826 -0.757927,-1.855483 -2.403117,-2.721805 -1.6451894,-0.866322 -3.2221834,-0.222152 -1.5769963,0.64417 -2.1589664,2.42024 -0.5819683,1.77607 0.1759581,3.631553"
       id="path1120-6"
       style="stroke-width:0.324173" />
    <path
       stroke="none"
       fill="#dbdbdb"
       d="m 16.641717,22.749991 0.194046,-0.233971 q 0.49374,-0.485892 1.079692,-0.463781 0.573213,0.02163 0.894711,0.538291 0.319627,0.527555 0.196058,1.246777 -0.121693,0.708325 -0.617307,1.205115 -0.495613,0.49679 -1.068827,0.475157 -0.585951,-0.02211 -0.905576,-0.54967 Q 16.313343,24.81054 16.266869,24.6333 l 0.626037,0.01266 q 0.460443,0.0064 0.814834,-0.265384 0.365259,-0.260415 0.41992,-0.653199 0.05466,-0.392783 -0.229725,-0.677713 -0.271647,-0.28445 -0.732089,-0.290859 l -0.524135,-0.0088"
       id="path1110"
       style="stroke-width:0.236399" />
    <path
       stroke="none"
       fill="#eeecec"
       d="M 7.9549286,60.816814 Q 7.6508158,59.986305 7.6508158,59.04932 q 0,-2.001744 1.4336748,-3.407222 1.4553964,-1.426774 3.4755754,-1.426774 2.041899,0 3.497298,1.426774 1.433673,1.405478 1.433673,3.407222 0,2.001741 -1.433673,3.40722 -1.455399,1.426774 -3.497298,1.426774 -1.042672,0 -1.976733,-0.383314 -0.8037275,-0.362015 -1.4988424,-1.04346 -0.760282,-0.724034 -1.129562,-1.639726"
       id="path1106-0"
       style="stroke-width:0.430153" />
    <path
       stroke="none"
       fill="#4f3f2f"
       d="m 7.9549286,60.816814 q 0.36928,0.915692 1.129562,1.639726 Q 9.7796055,63.137985 10.583333,63.5 6.4995312,67.673847 6.4126433,74.679946 l 0.021723,0.873101 q 0.021722,0.766624 -0.521337,1.299002 -0.5430584,0.553674 -1.3250621,0.574968 -0.7820048,0.0213 -1.3250648,-0.511083 Q 2.698122,76.404851 2.6763999,75.638226 L 2.6546764,74.594765 Q 2.7632957,65.948943 7.9549286,60.816814"
       id="path1108-0"
       style="stroke-width:0.430153" />
    <path
       stroke="none"
       fill="#dbdbdb"
       d="m 6.4126433,74.679946 0.4778906,0.255542 q 0.9992285,0.681443 0.9992285,1.66102 0,0.958281 -0.9992285,1.639725 -1.0209507,0.681445 -2.4546258,0.681445 -1.4119509,0 -2.4329013,-0.681445 -1.02095054,-0.681444 -1.02095054,-1.639725 0,-0.979577 1.02095054,-1.66102 0.3041122,-0.212952 0.6516702,-0.340723 l 0.021724,1.043461 q 0.021724,0.766625 0.5865025,1.277708 0.54306,0.532378 1.3250651,0.511083 0.7820036,-0.0213 1.325062,-0.574968 0.5430584,-0.532378 0.5213367,-1.299002 l -0.021723,-0.873101"
       id="path1110-8"
       style="stroke-width:0.430153" />
    <path
       stroke="none"
       fill="#eeecec"
       d="m 58.208334,60.854167 q 0.322931,-0.906734 0.322931,-1.929716 0,-2.185465 -1.522394,-3.719939 -1.545461,-1.557724 -3.690655,-1.557724 -2.168258,0 -3.713722,1.557724 -1.522393,1.534474 -1.522393,3.719939 0,2.185462 1.522393,3.719937 1.545464,1.557724 3.713722,1.557724 1.107196,0 2.099059,-0.418494 0.853465,-0.395241 1.591596,-1.13923 0.80733,-0.790486 1.199463,-1.790221"
       id="path1106-0-2"
       style="stroke-width:0.463158" />
    <path
       stroke="none"
       fill="#4f3f2f"
       d="m 58.208334,60.854167 q -0.392133,0.999735 -1.199463,1.790221 -0.738131,0.743989 -1.591596,1.13923 4.33652,4.556925 4.428785,12.206049 l -0.02307,0.953234 q -0.02307,0.836986 0.553598,1.418226 0.576665,0.60449 1.407061,0.627739 0.830398,0.02325 1.407065,-0.557991 0.59973,-0.557991 0.622796,-1.394977 l 0.02307,-1.13923 Q 63.721239,66.457326 58.208333,60.854167"
       id="path1108-0-8"
       style="stroke-width:0.463158" />
    <path
       stroke="none"
       fill="#dbdbdb"
       d="m 59.84606,75.989667 -0.507464,0.278995 q -1.061064,0.743987 -1.061064,1.81347 0,1.046232 1.061064,1.79022 1.08413,0.743988 2.606525,0.743988 1.499327,0 2.583457,-0.743988 1.08413,-0.743988 1.08413,-1.79022 0,-1.069483 -1.08413,-1.81347 -0.322932,-0.232497 -0.691997,-0.371994 l -0.02307,1.13923 q -0.02307,0.836986 -0.622797,1.394977 -0.576667,0.58124 -1.407065,0.557991 -0.830396,-0.02325 -1.407061,-0.627739 -0.576664,-0.58124 -0.553598,-1.418226 l 0.02307,-0.953234"
       id="path1110-8-0"
       style="stroke-width:0.463158" />
    <path
       stroke="none"
       fill="#000000"
       fill-opacity="0.101961"
       d="m 50.515025,40.172746 0.02776,1.420874 q 0,7.55905 -5.191061,12.873119 -5.218821,5.314069 -12.575139,5.314069 -7.38408,0 -12.57514,-5.314069 -5.19106,-5.314069 -5.19106,-12.873119 l 0.05552,-1.420874 q 0.444154,6.64969 5.13554,11.452245 5.191063,5.314069 12.575141,5.314069 7.356317,0 12.575138,-5.314069 4.691388,-4.802555 5.163303,-11.452245"
       id="path902"
       style="stroke-width:0.561733" />
    <path
       stroke="none"
       fill="#33291e"
       d="m 20.121469,50.496345 q -1.896387,-1.857785 -3.094104,-3.980966 -0.548949,-0.973117 -0.523999,-2.255871 0.02489,-1.282758 0.59886,-2.167416 0.548952,-0.973123 1.322477,-0.884657 0.748572,0.04432 1.322477,0.973124 l 1.347432,1.990482 1.122864,1.150057 q 1.122857,1.105821 2.39543,1.902012 3.643053,2.300113 8.359064,2.300113 4.691055,0 8.359066,-2.300113 1.222667,-0.796191 2.395429,-1.902012 l 1.097909,-1.194292 1.397336,-1.990478 q 0.548955,-0.928893 1.322477,-0.928893 0.773524,0 1.322483,0.884657 0.523998,0.884658 0.573905,2.167416 0,1.326984 -0.548955,2.255871 -1.197717,2.123181 -3.069148,3.980966 l -0.274484,0.265383 q -2.794675,2.653967 -6.213157,3.980958 l -2.86953,0.75196 -3.49334,0.309643 -3.543243,-0.309643 -2.869529,-0.75196 Q 23.140705,53.415695 20.39594,50.761728 l -0.274483,-0.265383"
       id="path938"
       style="stroke-width:0.664448" />
    <path
       stroke="none"
       fill="#000000"
       fill-opacity="0.101961"
       d="m 41.601858,27.447543 0.01385,0.658855 q 0,3.505105 -2.59036,5.969222 -2.604212,2.464116 -6.275043,2.464116 -3.684684,0 -6.275043,-2.464116 -2.59036,-2.464117 -2.59036,-5.969222 l 0.02771,-0.658855 q 0.221634,3.083439 2.562654,5.310368 2.59036,2.464116 6.275044,2.464116 3.670831,0 6.275043,-2.464116 2.34102,-2.226929 2.576508,-5.310368"
       id="path902-3"
       style="stroke-width:0.270209" />
    <path
       stroke="none"
       fill="#33291e"
       d="m 26.435356,32.234561 q -0.946305,-0.861448 -1.54397,-1.84596 -0.273928,-0.451231 -0.261478,-1.04604 0.01242,-0.594811 0.298834,-1.005024 0.273929,-0.451234 0.659921,-0.410212 0.37354,0.02055 0.659921,0.451235 l 0.672374,0.922979 0.560313,0.533278 q 0.56031,0.512765 1.195329,0.881956 1.817897,1.066555 4.171205,1.066555 2.340855,0 4.171207,-1.066555 0.610115,-0.369191 1.195328,-0.881956 l 0.547861,-0.55379 0.697276,-0.922977 q 0.273931,-0.430725 0.659921,-0.430725 0.385992,0 0.659924,0.410212 0.261477,0.410213 0.286381,1.005024 0,0.615318 -0.273931,1.04604 -0.597665,0.984512 -1.531517,1.84596 l -0.136968,0.123057 q -1.394554,1.230637 -3.100389,1.845957 l -1.431907,0.348682 -1.74319,0.14358 -1.768092,-0.14358 -1.431906,-0.348682 q -1.705837,-0.61532 -3.075485,-1.845957 L 26.43535,32.234561"
       id="path938-4"
       style="stroke-width:0.319617" />
    <path
       stroke="none"
       fill="#433528"
       d="m 40.179203,61.175279 q 4.504446,2.431364 4.143108,6.098944 l -0.175141,0.30231 -0.325861,0.166648 q -2.586872,0.459805 -5.508877,0.009 -0.208021,-0.02734 -0.35548,-0.140348 -0.160226,-0.100409 -0.211831,-0.256361 -1.041252,-2.980701 1.493947,-6.027693 l 0.277803,-0.196767 q 0.137404,-0.0581 0.329403,-0.04081 l 0.332941,0.08501"
       id="path1280"
       style="stroke-width:0.36338" />
  </g>
</svg>
