<?xml version="1.0" encoding="UTF-8" standalone="no"?>
<!-- Created with Inkscape (http://www.inkscape.org/) -->

<svg
   width="384"
   height="384"
   viewBox="0 0 101.6 101.6"
   version="1.1"
   id="svg5"
   inkscape:version="1.1.2 (b8e25be833, 2022-02-05)"
   sodipodi:docname="antena_monster_3_sleepy.svg"
   inkscape:export-filename="C:\Users\David Dalisay\KennyJam22\Sprites\green_monster.png"
   inkscape:export-xdpi="18"
   inkscape:export-ydpi="18"
   xmlns:inkscape="http://www.inkscape.org/namespaces/inkscape"
   xmlns:sodipodi="http://sodipodi.sourceforge.net/DTD/sodipodi-0.dtd"
   xmlns="http://www.w3.org/2000/svg"
   xmlns:svg="http://www.w3.org/2000/svg">
  <sodipodi:namedview
     id="namedview7"
     pagecolor="#ffffff"
     bordercolor="#666666"
     borderopacity="1.0"
     inkscape:pageshadow="2"
     inkscape:pageopacity="0.0"
     inkscape:pagecheckerboard="0"
     inkscape:document-units="mm"
     showgrid="false"
     inkscape:zoom="2.1997092"
     inkscape:cx="252.98799"
     inkscape:cy="230.48501"
     inkscape:window-width="2560"
     inkscape:window-height="1377"
     inkscape:window-x="-8"
     inkscape:window-y="-8"
     inkscape:window-maximized="1"
     inkscape:current-layer="layer1"
     units="px"
     width="384px">
    <inkscape:grid
       type="xygrid"
       id="grid3982" />
  </sodipodi:namedview>
  <defs
     id="defs2" />
  <g
     inkscape:groupmode="layer"
     id="layer2"
     inkscape:label="Layer 2">
    <path
       stroke="none"
       fill="#4f3f2f"
       d="m 71.213835,22.315223 q -1.164293,0.522531 -2.569809,0.63098 -1.301671,0.115375 -2.44305,-0.106024 0.664705,6.13429 -5.227813,12.027246 l -0.768037,0.713203 q -0.677112,0.624498 -0.569373,1.421358 0.08956,0.814596 0.881132,1.341174 0.791566,0.526588 1.808507,0.436444 1.021237,-0.05826 1.698349,-0.682764 l 0.913504,-0.855114 q 7.270168,-7.273069 6.27659,-14.926503"
       id="path1108-1"
       style="stroke-width:0.512268" />
    <path
       stroke="none"
       fill="#eeecec"
       d="m 72.964135,25.840661 c 1.013581,-0.168082 2.004509,-0.515445 2.972785,-1.042089 2.068587,-1.125105 3.462934,-2.786761 4.183041,-4.984966 0.731019,-2.231507 -0.622226,-5.782802 -1.654112,-7.767139 -1.042983,-2.005668 8.392473,-8.6146884 5.573248,-6.7164264 -1.883375,1.2681283 -10.565987,1.8002097 -12.634576,2.9253149 -2.068586,1.1251041 -6.469961,4.8315355 -7.19007,7.0297375 -0.731015,2.231511 -0.575033,4.350101 0.467946,6.35577 0.532587,1.024171 1.235491,1.887279 2.108713,2.589322 0.784641,0.585992 1.70659,1.028871 2.765849,1.328636 1.136557,0.339841 2.272282,0.433788 3.407176,0.28184"
       id="path1106-2"
       style="stroke-width:0.736285"
       sodipodi:nodetypes="csssssssccc" />
  </g>
  <g
     inkscape:label="Layer 1"
     inkscape:groupmode="layer"
     id="layer1">
    <path
       stroke="none"
       fill="#eeecec"
       d="m 16.168796,38.486089 q 0.170399,-4.551634 3.786662,-7.80767 3.805596,-3.409463 9.163723,-3.409463 h 36.23837 q 5.35813,0 9.144794,3.409463 3.635196,3.256036 3.805595,7.80767 v 30.088507 q -0.170399,4.534585 -3.805595,7.790623 -3.786664,3.426511 -9.144794,3.426511 h -36.23837 q -5.358127,0 -9.163723,-3.426511 -3.616263,-3.256038 -3.786662,-7.790623 V 38.486089"
       id="path1302"
       style="stroke-width:0.359312" />
    <path
       stroke="none"
       fill="#000000"
       fill-opacity="0.101961"
       d="m 37.703869,31.744781 0.01402,0.673556 q 0,3.583324 -2.623508,6.102428 -2.637538,2.519104 -6.355344,2.519104 -3.731836,0 -6.355344,-2.519104 -2.623508,-2.519104 -2.623508,-6.102428 l 0.02807,-0.673556 q 0.224472,3.152246 2.595449,5.42887 2.623508,2.519104 6.355345,2.519104 3.717805,0 6.355343,-2.519104 2.370978,-2.276624 2.609479,-5.42887"
       id="path902-0"
       style="stroke-width:0.274949" />
    <path
       stroke="none"
       fill="#eeecec"
       d="m 21.185844,70.078455 q -0.304113,-0.830509 -0.304113,-1.767494 0,-2.001744 1.433675,-3.407222 1.455396,-1.426774 3.475575,-1.426774 2.041899,0 3.497298,1.426774 1.433673,1.405478 1.433673,3.407222 0,2.001741 -1.433673,3.40722 -1.455399,1.426774 -3.497298,1.426774 -1.042672,0 -1.976733,-0.383314 -0.803727,-0.362015 -1.498842,-1.04346 -0.760282,-0.724034 -1.129562,-1.639726"
       id="path1106-0"
       style="stroke-width:0.430153" />
    <path
       stroke="none"
       fill="#eeecec"
       d="m 13.287436,75.620094 0.07378,-0.396159 q 0.644723,-2.832749 2.897407,-4.75714 2.747258,-2.330232 6.261359,-1.95087 3.5141,0.379361 5.735052,3.245931 1.849984,2.367291 1.932317,5.278528 l 8.09e-4,0.349107 -0.07199,0.377982 q -0.642942,2.814572 -2.912937,4.737094 -2.577224,2.201633 -5.86321,1.993854 l -0.380848,-0.04111 Q 17.773981,84.113456 15.629713,81.714396 L 15.20681,81.209509 q -1.832673,-2.365423 -1.916786,-5.258483 l -0.0026,-0.330928"
       id="path1126"
       style="stroke-width:0.356644" />
    <path
       stroke="none"
       fill="#dbdbdb"
       d="m 19.175805,81.604811 q 3.712578,5.866909 9.170781,8.850155 1.262129,0.685273 2.668659,0.373764 1.401074,-0.34771 2.131785,-1.49431 0.74452,-1.1853 0.391264,-2.486649 -0.355983,-1.31945 -1.598849,-2.00722 -3.01356,-1.750012 -5.337671,-4.659733 L 26.266593,79.781373 25.442618,78.61486 q -2.29818,2.47549 -5.842977,2.935007 l -0.423836,0.05494"
       id="path1128"
       style="stroke-width:0.377104" />
    <path
       stroke="none"
       fill="#eeecec"
       d="m 81.126571,72.943705 -0.076,-0.396159 q -0.66447,-2.832749 -2.98613,-4.75714 -2.83138,-2.330232 -6.45309,-1.95087 -3.621705,0.379361 -5.910665,3.245931 -1.906632,2.367291 -1.991486,5.278528 l -8.34e-4,0.349107 0.07419,0.377982 q 0.66263,2.814572 3.002134,4.737094 2.656141,2.201633 6.042751,1.993854 l 0.39251,-0.04111 q 3.28273,-0.343855 5.49266,-2.742915 l 0.43585,-0.504887 q 1.88879,-2.365423 1.97548,-5.258483 l 0.003,-0.330928"
       id="path1126-5"
       style="stroke-width:0.362063" />
    <path
       stroke="none"
       fill="#dbdbdb"
       d="m 76.074767,79.3186 q -2.759866,5.983843 -6.999871,9.14274 -0.980579,0.725893 -2.108127,0.460363 -1.124383,-0.301885 -1.742003,-1.423946 -0.62985,-1.160286 -0.391273,-2.47227 0.240156,-1.330161 1.205349,-2.057922 2.337649,-1.846924 4.090027,-4.830351 l 0.253377,-0.410089 0.616913,-1.192555 q 1.905936,2.399061 4.7371,2.742916 l 0.338508,0.04111"
       id="path1128-8"
       style="stroke-width:0.33624" />
    <path
       stroke="none"
       fill="#33291e"
       d="m 34.804174,36.657454 q -2.545738,2.781022 -6.000644,2.683366 -3.491659,-0.0987 -5.871,-3.018928 -0.976184,-1.212676 -1.541672,-2.633201 -0.238719,-0.643182 -0.03512,-1.317752 0.220708,-0.630197 0.74423,-0.922643 l 1.105829,-0.07848 q 0.581669,0.2359 0.802012,0.878562 0.395156,0.954846 1.05271,1.741542 1.543775,1.93099 3.840918,1.995922 2.278769,0.06441 3.932621,-1.776196 0.702355,-0.748257 1.115794,-1.680247 0.294218,-0.628119 0.870311,-0.831294 l 1.099429,0.140812 q 0.523978,0.322055 0.725943,0.964198 0.163932,0.684958 -0.148658,1.312557 -0.62903,1.386762 -1.69271,2.54178"
       id="path952"
       style="stroke-width:0.401648" />
    <path
       stroke="none"
       fill="#000000"
       fill-opacity="0.101961"
       d="m 73.207296,64.077235 0.01402,0.673556 q 0,3.583324 -2.623508,6.102428 -2.637538,2.519104 -6.355344,2.519104 -3.731836,0 -6.355343,-2.519104 -2.623508,-2.519104 -2.623508,-6.102428 l 0.02807,-0.673556 q 0.224472,3.152246 2.595449,5.42887 2.623508,2.519104 6.355345,2.519104 3.717806,0 6.355343,-2.519104 2.370979,-2.276624 2.609479,-5.42887"
       id="path902-0-9"
       style="stroke-width:0.274949" />
    <path
       stroke="none"
       fill="#33291e"
       d="m 70.307602,68.989908 q -2.545738,2.781022 -6.000644,2.683366 -3.491659,-0.0987 -5.871,-3.018928 -0.976185,-1.212676 -1.541672,-2.633201 -0.23872,-0.643182 -0.03512,-1.317752 0.220707,-0.630197 0.74423,-0.922643 l 1.105829,-0.07848 q 0.581669,0.2359 0.802012,0.878562 0.395156,0.954846 1.05271,1.741542 1.543775,1.93099 3.840918,1.995922 2.278769,0.06441 3.932621,-1.776196 0.702355,-0.748257 1.115794,-1.680247 0.294218,-0.628119 0.870311,-0.831294 l 1.099429,0.140812 q 0.523978,0.322055 0.725943,0.964198 0.163932,0.684958 -0.148658,1.312557 -0.62903,1.386762 -1.69271,2.54178"
       id="path952-5"
       style="stroke-width:0.401648" />
    <path
       stroke="none"
       fill="#000000"
       fill-opacity="0.101961"
       d="m 79.091595,16.014718 0.01111,0.505995 q 0,2.6919 -2.078766,4.584326 -2.089883,1.892426 -5.035729,1.892426 -2.956963,0 -5.035729,-1.892426 -2.078766,-1.892426 -2.078766,-4.584326 l 0.02224,-0.505995 q 0.177863,2.368061 2.056533,4.078329 2.078767,1.892426 5.03573,1.892426 2.945846,0 5.035729,-1.892426 1.878672,-1.710268 2.06765,-4.078329"
       id="path902-0-9-9"
       style="stroke-width:0.212129" />
    <path
       stroke="none"
       fill="#33291e"
       d="m 76.793989,19.705264 q -2.017145,2.089187 -4.754679,2.015825 -2.766655,-0.07415 -4.651953,-2.267909 -0.773492,-0.910998 -1.221562,-1.978139 -0.189152,-0.483177 -0.02783,-0.989935 0.174879,-0.473422 0.589699,-0.693116 l 0.876216,-0.05896 q 0.460892,0.177215 0.635483,0.660002 0.313107,0.717309 0.834127,1.308298 1.223228,1.450617 3.043395,1.499396 1.805609,0.04839 3.116057,-1.334331 0.556519,-0.562113 0.884112,-1.262252 0.233127,-0.471861 0.689601,-0.624493 l 0.871145,0.105783 q 0.41518,0.241937 0.575209,0.724334 0.129894,0.514561 -0.117791,0.986032 -0.498419,1.041777 -1.341238,1.909461"
       id="path952-5-0"
       style="stroke-width:0.30988" />
    <path
       stroke="none"
       fill="#000000"
       fill-opacity="0.101961"
       d="m 62.117319,44.404978 0.02576,1.377311 q 0,7.327306 -4.820046,12.478458 -4.845823,5.151151 -11.676371,5.151151 -6.856325,0 -11.676372,-5.151151 -4.820046,-5.151152 -4.820046,-12.478458 l 0.05157,-1.377311 q 0.412411,6.445823 4.768495,11.101143 4.820046,5.151152 11.676373,5.151152 6.830546,0 11.676369,-5.151152 4.356085,-4.65532 4.794272,-11.101143"
       id="path902-0-4"
       style="stroke-width:0.532925" />
    <path
       stroke="none"
       fill="#33291e"
       d="M 56.789847,54.450583 Q 52.112684,60.137314 45.76515,59.937624 39.350091,59.735798 34.978641,53.764415 33.185144,51.284692 32.1462,48.379953 q -0.438587,-1.315201 -0.06452,-2.694585 0.405496,-1.288649 1.367338,-1.886652 l 2.031687,-0.160479 q 1.068673,0.482377 1.473499,1.796514 0.726001,1.952503 1.934094,3.561166 2.836304,3.948556 7.056735,4.081331 4.186674,0.131708 7.225218,-3.632028 1.290403,-1.530062 2.049995,-3.435827 0.540553,-1.2844 1.598981,-1.699859 l 2.019929,0.287937 q 0.96268,0.658549 1.33374,1.971626 0.301185,1.400626 -0.273122,2.683962 -1.155687,2.835699 -3.109936,5.19752"
       id="path952-3"
       style="stroke-width:0.778501" />
  </g>
</svg>
