<?xml version="1.0" encoding="UTF-8" standalone="no"?>
<!-- Created with Inkscape (http://www.inkscape.org/) -->

<svg
   width="256"
   height="384"
   viewBox="0 0 67.733334 101.6"
   version="1.1"
   id="svg5"
   inkscape:version="1.1.2 (b8e25be833, 2022-02-05)"
   sodipodi:docname="antena_monster_2_bored.svg"
   inkscape:export-filename="C:\Users\David Dalisay\KennyJam22\Sprites\green_monster.png"
   inkscape:export-xdpi="18"
   inkscape:export-ydpi="18"
   xmlns:inkscape="http://www.inkscape.org/namespaces/inkscape"
   xmlns:sodipodi="http://sodipodi.sourceforge.net/DTD/sodipodi-0.dtd"
   xmlns="http://www.w3.org/2000/svg"
   xmlns:svg="http://www.w3.org/2000/svg">
  <sodipodi:namedview
     id="namedview7"
     pagecolor="#ffffff"
     bordercolor="#666666"
     borderopacity="1.0"
     inkscape:pageshadow="2"
     inkscape:pageopacity="0.0"
     inkscape:pagecheckerboard="0"
     inkscape:document-units="mm"
     showgrid="false"
     inkscape:zoom="2.1997092"
     inkscape:cx="251.62417"
     inkscape:cy="193.20736"
     inkscape:window-width="2560"
     inkscape:window-height="1377"
     inkscape:window-x="-8"
     inkscape:window-y="-8"
     inkscape:window-maximized="1"
     inkscape:current-layer="layer1"
     units="px"
     width="384px">
    <inkscape:grid
       type="xygrid"
       id="grid3982" />
  </sodipodi:namedview>
  <defs
     id="defs2" />
  <g
     inkscape:groupmode="layer"
     id="layer2"
     inkscape:label="Layer 2">
    <path
       stroke="none"
       fill="#eeecec"
       d="M 7.6804083,11.323861 Q 6.9654393,11.20793 6.2824283,10.844689 4.8232689,10.068671 4.3153127,8.5525069 3.7996601,7.0133722 4.5275419,5.64472 5.2632496,4.2613534 6.8276773,3.8284529 q 1.541077,-0.4264371 3.000238,0.3495795 1.4591587,0.7760158 1.9671157,2.2921778 0.515651,1.5391364 -0.220056,2.9225041 -0.375681,0.7063997 -0.991642,1.1906187 -0.553478,0.404176 -1.3006667,0.610933 -0.801715,0.234398 -1.602258,0.129595"
       id="path1106"
       style="stroke-width:0.34238" />
    <path
       stroke="none"
       fill="#4f3f2f"
       d="m 7.6804083,11.323861 q 0.800543,0.104803 1.602258,-0.129595 0.7471887,-0.206757 1.3006667,-0.610933 1.57109,4.384815 6.646845,7.159738 l 0.644271,0.323758 q 0.566654,0.282479 0.759061,0.856785 0.20793,0.582559 -0.05831,1.120615 -0.26623,0.53806 -0.84998,0.699587 -0.576044,0.184502 -1.142699,-0.09798 l -0.768452,-0.3898 Q 9.5508763,16.830715 7.6804083,11.323861"
       id="path1108"
       style="stroke-width:0.34238" />
    <path
       stroke="none"
       fill="#eeecec"
       d="m 61.383334,12.7 q 0.671932,-0.115931 1.31383,-0.479172 1.371326,-0.776017 1.848706,-2.2921807 0.484613,-1.5391348 -0.199454,-2.907787 -0.691423,-1.3833666 -2.16168,-1.8162671 -1.448313,-0.4264371 -2.81964,0.3495795 -1.371326,0.7760158 -1.848707,2.2921778 -0.484611,1.5391368 0.20681,2.9225035 0.353067,0.7064 0.931951,1.190619 0.520161,0.404175 1.222374,0.610932 0.753456,0.234398 1.50581,0.129595"
       id="path1106-2"
       style="stroke-width:0.331915" />
    <path
       stroke="none"
       fill="#4f3f2f"
       d="m 61.383334,12.7 q -0.752354,0.104803 -1.50581,-0.129595 -0.702213,-0.206757 -1.222374,-0.610932 -1.476519,4.384813 -6.246741,7.159736 l -0.60549,0.323758 q -0.532544,0.282479 -0.713369,0.856785 -0.195414,0.582559 0.0548,1.120615 0.250204,0.53806 0.798816,0.699587 0.541369,0.184502 1.073914,-0.09798 l 0.722196,-0.3898 Q 59.625458,18.206853 61.383334,12.7"
       id="path1108-1"
       style="stroke-width:0.331915" />
  </g>
  <g
     inkscape:label="Layer 1"
     inkscape:groupmode="layer"
     id="layer1">
    <path
       stroke="none"
       fill="#eeecec"
       d="m 9.0722153,29.104167 q 0.132138,-4.551634 2.9364117,-7.80767 2.951095,-3.409463 7.106119,-3.409463 h 28.101477 q 4.155026,0 7.09144,3.409463 2.818956,3.256036 2.951094,7.80767 v 30.088507 q -0.132138,4.534585 -2.951094,7.790623 -2.936414,3.426511 -7.09144,3.426511 H 19.114746 q -4.155024,0 -7.106119,-3.426511 Q 9.2043533,63.727259 9.0722153,59.192674 V 29.104167"
       id="path1302"
       style="stroke-width:0.316411" />
    <path
       stroke="none"
       fill="#eeecec"
       d="m 64.43754,21.202806 0.0032,0.02404 q 0.0763,3.184744 -1.907728,5.915838 -2.314706,3.186276 -6.067788,3.871628 -3.760265,0.723597 -6.794524,-1.480673 -3.020772,-2.194472 -3.508468,-6.004047 -0.508364,-3.781124 1.80634,-6.967401 l 0.144668,-0.199142 q 1.458227,-0.787817 3.245537,-1.206183 4.336829,-0.978416 8.170083,0.80665 3.833255,1.785066 4.908726,5.239309 m -5.156744,5.793882 q 1.178019,-1.621588 0.9227,-3.567303 -0.25532,-1.945718 -1.792678,-3.062548 -1.537357,-1.11683 -3.453219,-0.74839 -1.915859,0.36844 -3.093879,1.990028 -0.682011,0.938813 -0.896577,1.999893 l 0.325772,-0.306622 q 0.695139,-0.559844 1.366104,-0.746085 0.650296,-0.157795 0.898465,0.152877 0.275135,0.330271 -0.04696,0.943801 -0.295122,0.633126 -0.976782,1.202762 l -0.04449,0.03288 0.08809,0.02056 1.25188,0.800795 q 0.453606,0.481641 0.299998,0.891609 -0.156749,0.385947 -0.843481,0.452079 -0.683572,0.09016 -1.465217,-0.195169 l -0.426099,-0.179182 q 0.469883,0.884637 1.332961,1.511629 1.537357,1.116829 3.456371,0.772411 1.919013,-0.344419 3.097033,-1.966007"
       id="path1118"
       style="stroke-width:0.34238" />
    <path
       stroke="none"
       fill="#dbdbdb"
       d="m 59.280796,26.996687 q -1.178021,1.621589 -3.097033,1.966007 -1.919014,0.344419 -3.456372,-0.772411 -0.863077,-0.626991 -1.332962,-1.511628 l 0.426107,0.179174 q 0.781645,0.285324 1.465216,0.19517 0.686726,-0.06614 0.843481,-0.452079 0.153611,-0.409961 -0.299997,-0.891608 l -1.251881,-0.800795 -0.08809,-0.02056 0.04449,-0.03288 q 0.681655,-0.569639 0.976782,-1.202762 0.322088,-0.613538 0.04695,-0.943799 -0.248171,-0.310667 -0.898462,-0.152879 -0.670965,0.186241 -1.366105,0.746085 l -0.325771,0.306623 q 0.214565,-1.061078 0.896577,-1.999892 1.178018,-1.621587 3.093879,-1.990027 1.915861,-0.368441 3.453218,0.748389 1.537359,1.11683 1.792678,3.062549 0.255319,1.945715 -0.922701,3.567302"
       id="path1120"
       style="stroke-width:0.34238" />
    <path
       stroke="none"
       fill="#eeecec"
       d="m 1.6158323,21.895968 0.00163,0.02302 q 0.5334882,3.021557 2.8957725,5.43296 2.7559991,2.813306 6.3742053,3.132936 3.632143,0.355207 6.033874,-1.997601 2.391056,-2.342353 2.121337,-5.99149 -0.245111,-3.624019 -3.001109,-6.437324 l -0.172251,-0.17583 q -1.504801,-0.6179 -3.245336,-0.857194 -4.2163659,-0.545866 -7.4402458,1.480177 -3.2238809,2.026042 -3.5678791,5.390353 m 5.8922851,5.032557 Q 6.1055137,25.496758 5.9735483,23.632436 5.8415822,21.768114 7.0584604,20.576023 q 1.2168765,-1.192088 3.0674156,-1.011332 1.850535,0.180757 3.253142,1.612528 0.812035,0.828921 1.212828,1.814582 l -0.360972,-0.26169 Q 13.47856,22.2611 12.819615,22.143638 q -0.634336,-0.09234 -0.806026,0.223526 -0.193041,0.336774 0.222756,0.889337 0.394441,0.573474 1.136096,1.052931 l 0.04759,0.02722 -0.07799,0.02717 -1.011531,0.867875 q -0.330177,0.495731 -0.109609,0.87036 0.218931,0.35161 0.869734,0.353988 0.652426,0.02539 1.324742,-0.313266 l 0.362023,-0.206989 q -0.268827,0.87866 -0.951984,1.547902 -1.216877,1.19209 -3.065787,1.03435 Q 8.910721,28.36032 7.5081144,26.928549"
       id="path1118-2"
       style="stroke-width:0.324173" />
    <path
       stroke="none"
       fill="#dbdbdb"
       d="m 7.5081168,26.928524 q 1.4026066,1.431771 3.2515152,1.589512 1.848909,0.15774 3.065786,-1.034349 0.683158,-0.669243 0.951986,-1.547902 l -0.362024,0.20699 q -0.672315,0.338661 -1.324741,0.313265 -0.6508,-0.0024 -0.869733,-0.353987 -0.220573,-0.374618 0.109608,-0.87036 l 1.011531,-0.867876 0.07799,-0.02717 -0.04759,-0.02722 q -0.741641,-0.47947 -1.136089,-1.052938 -0.415792,-0.55256 -0.222757,-0.889337 0.171695,-0.315861 0.806025,-0.223525 0.658945,0.117461 1.41126,0.586475 l 0.360972,0.261689 q -0.400777,-0.985669 -1.212827,-1.814584 -1.402606,-1.43177 -3.253144,-1.612527 -1.8505376,-0.180758 -3.0674137,1.011331 -1.2168781,1.192091 -1.0849129,3.056414 0.131967,1.864322 1.5345728,3.296092"
       id="path1120-6"
       style="stroke-width:0.324173" />
    <path
       stroke="none"
       fill="#33291e"
       d="m 26.555526,44.880659 0.92504,0.106001 q 1.778925,0 3.012314,-1.404497 1.257105,-1.377998 1.257105,-3.365494 l -0.09489,-1.033501 0.569257,-0.0265 q 2.34818,0 4.032229,1.854998 1.589173,1.775496 1.660331,4.266494 v 0.2385 q 0,2.649996 -1.660331,4.504993 -1.684049,1.854997 -4.032229,1.854997 -2.3719,0 -4.055949,-1.854997 -1.636609,-1.854997 -1.636609,-4.504993 v -0.238497 l 0.02372,-0.397501 m -2.893717,-2.517496 q -0.426943,1.377997 -0.450663,2.941495 v 0.211999 q 0,4.186993 2.656528,7.128489 2.63281,2.941495 6.356692,2.941495 3.747602,0 6.38041,-2.941495 2.632809,-2.941496 2.632809,-7.128489 v -0.211999 q -0.07116,-4.027994 -2.632809,-6.889989 -2.632808,-2.967994 -6.38041,-2.967994 -1.494298,0 -2.822561,0.476999 -0.877603,-0.476999 -1.92124,-0.476999 -1.778924,0 -3.03603,1.377996 -1.233389,1.404499 -1.233389,3.391997 0,1.165996 0.450663,2.146495 m -6.570163,4.478492 -0.04744,-1.324998 v -0.211999 q 0.07116,-6.889989 4.435451,-11.765981 4.435452,-4.98199 10.744707,-4.98199 6.285535,0 10.744706,4.98199 4.364296,4.875992 4.435452,11.765981 v 0.211999 l -0.02373,1.324998 q -0.403223,6.20099 -4.411734,10.679484 -4.459171,4.955491 -10.744705,4.955491 -6.309254,0 -10.744706,-4.955491 -4.008499,-4.478492 -4.388002,-10.679481"
       id="path898"
       style="stroke-width:0.501419" />
    <path
       stroke="none"
       fill="#ffffff"
       d="m 29.401806,35.394507 q 1.328262,-0.476999 2.82256,-0.476999 3.747602,0 6.380412,2.967993 2.561651,2.861995 2.632807,6.889991 v 0.211997 q 0,4.186994 -2.632807,7.128489 -2.63281,2.941496 -6.380412,2.941496 -3.723882,0 -6.356691,-2.941496 -2.656529,-2.941495 -2.656529,-7.128489 v -0.211997 q 0.02373,-1.563499 0.450663,-2.941497 0.616694,-2.199497 2.205866,-3.948494 1.565454,-1.775496 3.534131,-2.490994 m -2.84628,8.956985 -0.02372,0.3975 v 0.238497 q 0,2.649997 1.636609,4.504994 1.684049,1.854997 4.05595,1.854997 2.34818,0 4.032229,-1.854997 1.66033,-1.854997 1.66033,-4.504994 V 44.748992 Q 37.845764,42.257995 36.256594,40.482498 34.572545,38.6275 32.224365,38.6275 l -0.569256,0.0265 q -2.016115,0.212001 -3.486694,1.8285 -1.446858,1.642995 -1.61289,3.868992"
       id="path900"
       style="stroke-width:0.501419" />
    <path
       stroke="none"
       fill="#000000"
       fill-opacity="0.101961"
       d="m 47.075419,44.146958 0.02372,1.324998 q 0,7.048988 -4.435452,12.00448 -4.459171,4.955492 -10.744706,4.955492 -6.309255,0 -10.744706,-4.955492 -4.435452,-4.955492 -4.435452,-12.00448 l 0.04744,-1.324998 q 0.379503,6.200989 4.388013,10.679483 4.435453,4.955492 10.744707,4.955492 6.285534,0 10.744705,-4.955492 4.008511,-4.478494 4.411734,-10.679483"
       id="path902"
       style="stroke-width:0.501419" />
    <path
       stroke="none"
       fill="#4f3f2f"
       d="m 23.661809,42.363162 q -0.450663,-0.980498 -0.450663,-2.146495 0,-1.987498 1.233389,-3.391996 1.257107,-1.377996 3.036031,-1.377996 1.043637,0 1.92124,0.476999 -1.968677,0.715498 -3.534131,2.490994 -1.589172,1.748997 -2.205866,3.948494 m 2.893717,2.517497 q 0.166025,-2.225997 1.612891,-3.868994 1.470579,-1.616497 3.486693,-1.828498 l 0.09489,1.0335 q 0,1.987496 -1.257105,3.365495 -1.233389,1.404497 -3.012314,1.404497 l -0.92504,-0.106001"
       id="path904"
       style="stroke-width:0.501419" />
    <path
       stroke="none"
       fill="#33291e"
       d="m 30.069092,28.185971 0.393574,0.03926 q 0.756872,0 1.281638,-0.520254 0.534856,-0.510439 0.534856,-1.246648 l -0.04037,-0.38283 0.2422,-0.0098 q 0.999072,0 1.715578,0.687129 0.67614,0.65768 0.706415,1.580396 v 0.08835 q 0,0.981613 -0.706415,1.668741 -0.716506,0.687129 -1.715578,0.687129 -1.009164,0 -1.725671,-0.687129 -0.696322,-0.687128 -0.696322,-1.668741 v -0.08834 l 0.01009,-0.147243 m -1.23118,-0.932531 q -0.18165,0.510437 -0.191742,1.089589 v 0.07853 q 0,1.550948 1.130264,2.640538 1.120172,1.089589 2.70456,1.089589 1.594479,0 2.714651,-1.089589 1.120172,-1.08959 1.120172,-2.640538 v -0.07853 q -0.03028,-1.492051 -1.120172,-2.552192 -1.120172,-1.099406 -2.714651,-1.099406 -0.635774,0 -1.200905,0.17669 -0.373391,-0.17669 -0.817424,-0.17669 -0.756873,0 -1.291729,0.510438 -0.524766,0.520255 -0.524766,1.256465 0,0.431908 0.191742,0.795106 m -2.795384,1.658924 -0.02019,-0.490806 v -0.07853 q 0.03028,-2.552192 1.887136,-4.358359 1.887136,-1.845431 4.571513,-1.845431 2.674285,0 4.571513,1.845431 1.856861,1.806167 1.887135,4.358359 v 0.07853 l -0.0101,0.490806 q -0.171558,2.296974 -1.877045,3.955899 -1.897228,1.835615 -4.571513,1.835615 -2.684376,0 -4.571512,-1.835615 -1.705482,-1.658925 -1.866948,-3.955898"
       id="path898-9"
       style="stroke-width:0.199059" />
    <path
       stroke="none"
       fill="#ffffff"
       d="m 31.280089,24.868121 q 0.565131,-0.17669 1.200905,-0.17669 1.594479,0 2.714651,1.099405 1.089897,1.060141 1.120172,2.552194 v 0.07853 q 0,1.550947 -1.120172,2.640537 -1.120172,1.089591 -2.714651,1.089591 -1.584388,0 -2.70456,-1.089591 -1.130264,-1.08959 -1.130264,-2.640537 v -0.07853 q 0.0101,-0.579152 0.191742,-1.089591 0.262383,-0.814739 0.938522,-1.462603 0.666048,-0.65768 1.503655,-0.922715 m -1.210997,3.31785 -0.01009,0.147242 v 0.08835 q 0,0.981612 0.696322,1.668741 0.716506,0.687129 1.725671,0.687129 0.999072,0 1.715578,-0.687129 0.706415,-0.687129 0.706415,-1.668741 v -0.08835 q -0.03028,-0.922716 -0.706415,-1.580396 -0.716506,-0.687129 -1.715578,-0.687129 l -0.242199,0.0098 q -0.857789,0.07853 -1.483472,0.677314 -0.615589,0.608599 -0.686231,1.433153"
       id="path900-0"
       style="stroke-width:0.199059" />
    <path
       stroke="none"
       fill="#dbdbdb"
       d="m 16.172362,20.525571 0.0913,-0.289931 q 0.273644,-0.636388 0.824544,-0.837231 0.538923,-0.196476 1.031751,0.160483 0.49521,0.367754 0.652447,1.080373 0.154857,0.701821 -0.116406,1.349007 -0.271262,0.647186 -0.810187,0.84366 -0.550899,0.200843 -1.046109,-0.166916 -0.153116,-0.107499 -0.263092,-0.254057 l 0.584447,-0.224734 q 0.428753,-0.167985 0.65424,-0.553491 0.239843,-0.379085 0.1421,-0.76342 -0.09774,-0.384333 -0.468683,-0.540745 -0.358963,-0.160778 -0.787719,0.0072 l -0.488634,0.18982"
       id="path1110"
       style="stroke-width:0.236399" />
    <path
       stroke="none"
       fill="#eeecec"
       d="M 7.9549286,60.816814 Q 7.6508158,59.986305 7.6508158,59.04932 q 0,-2.001744 1.4336748,-3.407222 1.4553964,-1.426774 3.4755754,-1.426774 2.041899,0 3.497298,1.426774 1.433673,1.405478 1.433673,3.407222 0,2.001741 -1.433673,3.40722 -1.455399,1.426774 -3.497298,1.426774 -1.042672,0 -1.976733,-0.383314 -0.8037275,-0.362015 -1.4988424,-1.04346 -0.760282,-0.724034 -1.129562,-1.639726"
       id="path1106-0"
       style="stroke-width:0.430153" />
    <path
       stroke="none"
       fill="#4f3f2f"
       d="m 7.9549286,60.816814 q 0.36928,0.915692 1.129562,1.639726 Q 9.7796055,63.137985 10.583333,63.5 6.4995312,67.673847 6.4126433,74.679946 l 0.021723,0.873101 q 0.021722,0.766624 -0.521337,1.299002 -0.5430584,0.553674 -1.3250621,0.574968 -0.7820048,0.0213 -1.3250648,-0.511083 Q 2.698122,76.404851 2.6763999,75.638226 L 2.6546764,74.594765 Q 2.7632957,65.948943 7.9549286,60.816814"
       id="path1108-0"
       style="stroke-width:0.430153" />
    <path
       stroke="none"
       fill="#dbdbdb"
       d="m 6.4126433,74.679946 0.4778906,0.255542 q 0.9992285,0.681443 0.9992285,1.66102 0,0.958281 -0.9992285,1.639725 -1.0209507,0.681445 -2.4546258,0.681445 -1.4119509,0 -2.4329013,-0.681445 -1.02095054,-0.681444 -1.02095054,-1.639725 0,-0.979577 1.02095054,-1.66102 0.3041122,-0.212952 0.6516702,-0.340723 l 0.021724,1.043461 q 0.021724,0.766625 0.5865025,1.277708 0.54306,0.532378 1.3250651,0.511083 0.7820036,-0.0213 1.325062,-0.574968 0.5430584,-0.532378 0.5213367,-1.299002 l -0.021723,-0.873101"
       id="path1110-8"
       style="stroke-width:0.430153" />
    <path
       stroke="none"
       fill="#eeecec"
       d="m 58.208334,60.854167 q 0.322931,-0.906734 0.322931,-1.929716 0,-2.185465 -1.522394,-3.719939 -1.545461,-1.557724 -3.690655,-1.557724 -2.168258,0 -3.713722,1.557724 -1.522393,1.534474 -1.522393,3.719939 0,2.185462 1.522393,3.719937 1.545464,1.557724 3.713722,1.557724 1.107196,0 2.099059,-0.418494 0.853465,-0.395241 1.591596,-1.13923 0.80733,-0.790486 1.199463,-1.790221"
       id="path1106-0-2"
       style="stroke-width:0.463158" />
    <path
       stroke="none"
       fill="#4f3f2f"
       d="m 58.208334,60.854167 q -0.392133,0.999735 -1.199463,1.790221 -0.738131,0.743989 -1.591596,1.13923 4.33652,4.556925 4.428785,12.206049 l -0.02307,0.953234 q -0.02307,0.836986 0.553598,1.418226 0.576665,0.60449 1.407061,0.627739 0.830398,0.02325 1.407065,-0.557991 0.59973,-0.557991 0.622796,-1.394977 l 0.02307,-1.13923 Q 63.721239,66.457326 58.208333,60.854167"
       id="path1108-0-8"
       style="stroke-width:0.463158" />
    <path
       stroke="none"
       fill="#dbdbdb"
       d="m 59.84606,75.989667 -0.507464,0.278995 q -1.061064,0.743987 -1.061064,1.81347 0,1.046232 1.061064,1.79022 1.08413,0.743988 2.606525,0.743988 1.499327,0 2.583457,-0.743988 1.08413,-0.743988 1.08413,-1.79022 0,-1.069483 -1.08413,-1.81347 -0.322932,-0.232497 -0.691997,-0.371994 l -0.02307,1.13923 q -0.02307,0.836986 -0.622797,1.394977 -0.576667,0.58124 -1.407065,0.557991 -0.830396,-0.02325 -1.407061,-0.627739 -0.576664,-0.58124 -0.553598,-1.418226 l 0.02307,-0.953234"
       id="path1110-8-0"
       style="stroke-width:0.463158" />
    <path
       stroke="none"
       fill="#33291e"
       d="m 28.331165,25.459571 q 1.772709,-1.719792 4.259792,-1.719792 2.513542,0 4.28625,1.719792 0.727604,0.714375 1.164167,1.561041 0.185208,0.383646 0.05292,0.79375 -0.145521,0.383646 -0.515937,0.568855 l -0.79375,0.06615 q -0.423334,-0.132291 -0.595313,-0.515937 -0.304271,-0.568854 -0.79375,-1.031875 -1.150937,-1.137708 -2.804583,-1.137708 -1.640417,0 -2.791354,1.137708 -0.489479,0.463021 -0.767292,1.031875 -0.198437,0.383646 -0.608541,0.515937 l -0.79375,-0.06615 q -0.383646,-0.185209 -0.542396,-0.568855 -0.132292,-0.410104 0.07937,-0.79375 0.423333,-0.846666 1.164166,-1.561041"
       id="path952"
       style="stroke-width:0.264583" />
    <path
       stroke="none"
       fill="#33291e"
       d="m 42.537491,62.550234 c 0.152068,-1.639533 0.857851,-2.998468 2.11735,-4.076805 1.272897,-1.089809 2.731039,-1.58355 4.374425,-1.481223 0.678206,0.0463 1.311397,0.189191 1.899572,0.428673 0.260132,0.113983 0.445607,0.303494 0.556425,0.568534 0.09264,0.257379 0.08532,0.513266 -0.02196,0.767662 l -0.559929,0.566474 c -0.271741,0.116553 -0.534328,0.114987 -0.78776,-0.0047 -0.400729,-0.156152 -0.82541,-0.245356 -1.274045,-0.267611 -1.076135,-0.07714 -2.032918,0.242786 -2.870351,0.959766 -0.830733,0.711245 -1.290884,1.604452 -1.380455,2.679623 -0.04713,0.446707 -0.01771,0.874326 0.08824,1.282855 0.06585,0.280322 0.02361,0.542886 -0.126716,0.787691 l -0.645973,0.465976 c -0.274587,0.07255 -0.535246,0.04609 -0.781979,-0.07936 -0.244806,-0.150325 -0.396784,-0.368515 -0.455934,-0.654571 -0.152711,-0.612312 -0.19635,-1.259957 -0.130915,-1.942934"
       id="path952-7"
       style="stroke-width:0.264583"
       sodipodi:nodetypes="cscccccccsccccccc" />
    <path
       stroke="none"
       fill="#33291e"
       d="m 22.232055,37.704899 q 4.280473,-4.135547 10.285908,-4.135547 6.069323,0 10.349794,4.135547 1.756908,1.717842 2.811055,3.753802 0.447212,0.922545 0.127783,1.908714 -0.351381,0.922545 -1.245806,1.367913 l -1.91663,0.15907 q -1.022202,-0.318118 -1.437471,-1.240663 -0.734708,-1.367911 -1.91663,-2.481328 -2.77911,-2.735822 -6.772086,-2.735822 -3.961032,0 -6.740144,2.735822 -1.18192,1.113417 -1.852741,2.481328 -0.479156,0.922545 -1.469413,1.240663 l -1.916628,-0.15907 q -0.926371,-0.445368 -1.309697,-1.367913 -0.319439,-0.986169 0.19165,-1.908714 1.022202,-2.03596 2.811054,-3.753802"
       id="path952-6"
       style="stroke-width:0.637555" />
  </g>
</svg>
