<?xml version="1.0" encoding="UTF-8" standalone="no"?>
<!-- Created with Inkscape (http://www.inkscape.org/) -->

<svg
   width="256"
   height="256"
   viewBox="0 0 67.733334 67.733334"
   version="1.1"
   id="svg5"
   inkscape:version="1.1.2 (b8e25be833, 2022-02-05)"
   sodipodi:docname="antena_monster_hungry.svg"
   inkscape:export-filename="C:\Users\David Dalisay\KennyJam22\Sprites\green_monster.png"
   inkscape:export-xdpi="18"
   inkscape:export-ydpi="18"
   xmlns:inkscape="http://www.inkscape.org/namespaces/inkscape"
   xmlns:sodipodi="http://sodipodi.sourceforge.net/DTD/sodipodi-0.dtd"
   xmlns="http://www.w3.org/2000/svg"
   xmlns:svg="http://www.w3.org/2000/svg">
  <sodipodi:namedview
     id="namedview7"
     pagecolor="#ffffff"
     bordercolor="#666666"
     borderopacity="1.0"
     inkscape:pageshadow="2"
     inkscape:pageopacity="0.0"
     inkscape:pagecheckerboard="0"
     inkscape:document-units="mm"
     showgrid="true"
     inkscape:zoom="1.5554293"
     inkscape:cx="152.69097"
     inkscape:cy="161.04879"
     inkscape:window-width="1280"
     inkscape:window-height="1400"
     inkscape:window-x="0"
     inkscape:window-y="0"
     inkscape:window-maximized="0"
     inkscape:current-layer="layer1"
     units="px"
     width="384px">
    <inkscape:grid
       type="xygrid"
       id="grid3982" />
  </sodipodi:namedview>
  <defs
     id="defs2" />
  <g
     inkscape:groupmode="layer"
     id="layer2"
     inkscape:label="Layer 2" />
  <g
     inkscape:label="Layer 1"
     inkscape:groupmode="layer"
     id="layer1">
    <path
       stroke="none"
       fill="#eeecec"
       d="m 9.0722153,27.697623 q 0.132138,-3.980893 2.9364117,-6.828647 2.951095,-2.981942 7.106119,-2.981942 h 28.101477 q 4.155026,0 7.09144,2.981942 2.818956,2.847754 2.951094,6.828647 v 26.315636 q -0.132138,3.965982 -2.951094,6.813738 -2.936414,2.996852 -7.09144,2.996852 H 19.114746 q -4.155024,0 -7.106119,-2.996852 Q 9.2043533,57.979241 9.0722153,54.013259 V 27.697623"
       id="path1302"
       style="stroke-width:0.295909" />
    <path
       stroke="none"
       fill="#eeecec"
       d="m 53.343644,12.54219 0.01667,0.01759 q 1.933541,2.531765 1.933541,5.907451 0,3.938301 -2.633616,6.698627 -2.616948,2.795491 -6.367353,2.795491 -3.733734,0 -6.367351,-2.795491 -2.633616,-2.760326 -2.633616,-6.698627 v -0.246143 q 0.716743,-1.494444 1.916873,-2.883399 2.933648,-3.340523 7.084094,-4.149282 4.150448,-0.808759 7.05076,1.353792 m -0.76675,7.718366 q 0,-2.004314 -1.350144,-3.428431 -1.350146,-1.424118 -3.250351,-1.424118 -1.900204,0 -3.233681,1.424118 -1.333476,1.424117 -1.333476,3.428431 0,1.160392 0.450047,2.144967 l 0.08335,-0.439543 q 0.233358,-0.861503 0.666739,-1.406535 0.433379,-0.509869 0.816754,-0.40438 0.416712,0.105497 0.516722,0.791178 0.133348,0.685685 -0.08335,1.547189 l -0.01667,0.05275 0.08335,-0.03516 1.483493,-0.0879 q 0.650069,0.123067 0.766748,0.545033 0.100018,0.404378 -0.416711,0.861503 -0.500054,0.474705 -1.30014,0.703268 l -0.450048,0.105471 q 0.900097,0.439544 1.966878,0.439544 1.900204,0 3.25035,-1.406536 1.350145,-1.406536 1.350145,-3.41085"
       id="path1118"
       style="stroke-width:0.34238" />
    <path
       stroke="none"
       fill="#dbdbdb"
       d="m 52.576894,20.260556 q 0,2.004315 -1.350145,3.41085 -1.350146,1.406537 -3.25035,1.406537 -1.066781,0 -1.966878,-0.439543 l 0.450048,-0.105484 q 0.800086,-0.228562 1.30014,-0.703267 0.516722,-0.457126 0.416711,-0.861503 -0.116674,-0.421961 -0.766748,-0.545033 l -1.483493,0.0879 -0.08335,0.03516 0.01667,-0.05275 q 0.21669,-0.861503 0.08335,-1.547189 -0.100017,-0.685687 -0.516722,-0.791176 -0.383375,-0.105484 -0.816754,0.404378 -0.433381,0.545032 -0.666739,1.406536 l -0.08335,0.439542 q -0.450046,-0.984573 -0.450046,-2.144966 0,-2.004313 1.333476,-3.42843 1.333477,-1.424119 3.233681,-1.424119 1.900205,0 3.250351,1.424119 1.350144,1.424117 1.350144,3.42843"
       id="path1120"
       style="stroke-width:0.34238" />
    <path
       stroke="none"
       fill="#ffffff"
       d="m 37.291916,18.221079 q 0.100018,-3.780064 2.633617,-6.487647 2.633616,-2.7603284 6.367351,-2.7603284 3.750404,0 6.367353,2.7603284 l 0.683407,0.808758 q -2.900312,-2.16255 -7.05076,-1.353791 -4.150446,0.808758 -7.084095,4.149282 -1.200129,1.388954 -1.916873,2.883398"
       id="path1122"
       style="stroke-width:0.34238" />
    <path
       stroke="none"
       fill="#eeecec"
       d="m 13.979205,12.999324 -0.01494,0.01759 q -1.733372,2.531765 -1.733372,5.907451 0,3.938301 2.360971,6.698627 2.34603,2.795491 5.708175,2.795491 3.347203,0 5.708175,-2.795491 2.360972,-2.760326 2.360972,-6.698627 v -0.246142 q -0.642545,-1.494449 -1.718431,-2.883404 -2.629945,-3.340523 -6.350719,-4.149281 -3.720774,-0.80876 -6.320832,1.353791 m 0.687371,7.718366 q 0,-2.004314 1.210372,-3.428431 1.210372,-1.424118 2.91386,-1.424118 1.703486,0 2.898916,1.424118 1.195428,1.424117 1.195428,3.428431 0,1.160392 -0.403456,2.144967 l -0.07473,-0.439543 q -0.2092,-0.861502 -0.597715,-1.406535 -0.388514,-0.509869 -0.732201,-0.404379 -0.373571,0.105484 -0.463229,0.791177 -0.119546,0.685685 0.07473,1.547189 l 0.01494,0.05275 -0.07473,-0.03516 -1.329916,-0.0879 q -0.58277,0.123067 -0.687371,0.545033 -0.08966,0.404378 0.373572,0.861504 0.448286,0.474705 1.165543,0.703267 l 0.403457,0.105483 q -0.806915,0.439543 -1.763257,0.439543 -1.703487,0 -2.91386,-1.406536 -1.210371,-1.406536 -1.210371,-3.41085"
       id="path1118-2"
       style="stroke-width:0.324173" />
    <path
       stroke="none"
       fill="#dbdbdb"
       d="m 14.666576,20.717689 q 0,2.004314 1.210372,3.41085 1.210373,1.406536 2.91386,1.406536 0.956342,0 1.763258,-0.439542 l -0.403458,-0.105484 q -0.717258,-0.228562 -1.165544,-0.703267 -0.463229,-0.457126 -0.373571,-0.861503 0.104591,-0.421961 0.687371,-0.545033 l 1.329916,0.0879 0.07473,0.03516 -0.01494,-0.05275 q -0.194257,-0.861503 -0.07472,-1.547189 0.08966,-0.685687 0.463228,-0.791177 0.343687,-0.105483 0.7322,0.404379 0.388516,0.545033 0.597715,1.406536 l 0.07473,0.439542 q 0.403458,-0.984574 0.403458,-2.144967 0,-2.004313 -1.19543,-3.428431 -1.195428,-1.424118 -2.898914,-1.424118 -1.703488,0 -2.913861,1.424118 -1.210371,1.424118 -1.210371,3.428431"
       id="path1120-6"
       style="stroke-width:0.324173" />
    <path
       stroke="none"
       fill="#ffffff"
       d="m 28.369183,18.678213 q -0.08966,-3.780065 -2.360972,-6.487648 -2.360972,-2.7603284 -5.708173,-2.7603284 -3.362146,0 -5.708176,2.7603284 l -0.612657,0.808759 q 2.600058,-2.162551 6.320833,-1.353791 3.720772,0.808758 6.350717,4.149281 1.075886,1.388954 1.718428,2.883399"
       id="path1122-2"
       style="stroke-width:0.324173" />
    <path
       stroke="none"
       fill="#33291e"
       d="m 27.308473,42.185964 0.92504,0.106001 q 1.778925,0 3.012314,-1.404497 1.257105,-1.377998 1.257105,-3.365494 l -0.09489,-1.033501 0.569257,-0.0265 q 2.34818,0 4.032229,1.854998 1.589173,1.775496 1.660331,4.266494 v 0.2385 q 0,2.649996 -1.660331,4.504993 -1.684049,1.854997 -4.032229,1.854997 -2.3719,0 -4.055949,-1.854997 -1.636609,-1.854997 -1.636609,-4.504993 v -0.238497 l 0.02372,-0.397501 m -2.893717,-2.517496 q -0.426943,1.377997 -0.450663,2.941495 v 0.211999 q 0,4.186993 2.656528,7.128489 2.63281,2.941495 6.356692,2.941495 3.747602,0 6.38041,-2.941495 2.632809,-2.941496 2.632809,-7.128489 v -0.211999 q -0.07116,-4.027994 -2.632809,-6.889989 -2.632808,-2.967994 -6.38041,-2.967994 -1.494298,0 -2.822561,0.476999 -0.877603,-0.476999 -1.92124,-0.476999 -1.778924,0 -3.03603,1.377996 -1.233389,1.404499 -1.233389,3.391997 0,1.165996 0.450663,2.146495 m -6.570163,4.478492 -0.04744,-1.324998 v -0.211999 q 0.07116,-6.889989 4.435451,-11.765981 4.435452,-4.98199 10.744707,-4.98199 6.285535,0 10.744706,4.98199 4.364296,4.875992 4.435452,11.765981 v 0.211999 l -0.02373,1.324998 q -0.403223,6.20099 -4.411734,10.679484 -4.459171,4.955491 -10.744705,4.955491 -6.309254,0 -10.744706,-4.955491 -4.008499,-4.478492 -4.388002,-10.679481"
       id="path898"
       style="stroke-width:0.501419" />
    <path
       stroke="none"
       fill="#ffffff"
       d="m 30.154753,33.228979 q 1.328262,-0.476999 2.82256,-0.476999 3.747602,0 6.380412,2.967993 2.561651,2.861995 2.632807,6.889991 v 0.211997 q 0,4.186994 -2.632807,7.128489 -2.63281,2.941496 -6.380412,2.941496 -3.723882,0 -6.356691,-2.941496 -2.656529,-2.941495 -2.656529,-7.128489 v -0.211997 q 0.02373,-1.563499 0.450663,-2.941497 0.616694,-2.199497 2.205866,-3.948494 1.565454,-1.775496 3.534131,-2.490994 m -2.84628,8.956985 -0.02372,0.3975 v 0.238497 q 0,2.649997 1.636609,4.504994 1.684049,1.854997 4.05595,1.854997 2.34818,0 4.032229,-1.854997 1.66033,-1.854997 1.66033,-4.504994 v -0.238497 q -0.07116,-2.490997 -1.66033,-4.266494 -1.684049,-1.854998 -4.032229,-1.854998 l -0.569256,0.0265 q -2.016115,0.212001 -3.486694,1.8285 -1.446858,1.642995 -1.61289,3.868992"
       id="path900"
       style="stroke-width:0.501419" />
    <path
       stroke="none"
       fill="#000000"
       fill-opacity="0.101961"
       d="m 48.133753,44.14696 0.02372,1.324998 q 0,7.048988 -4.435452,12.00448 -4.459171,4.955492 -10.744706,4.955492 -6.309255,0 -10.744706,-4.955492 -4.435452,-4.955492 -4.435452,-12.00448 l 0.04744,-1.324998 q 0.379503,6.200989 4.388013,10.679483 4.435453,4.955492 10.744707,4.955492 6.285534,0 10.744705,-4.955492 4.008511,-4.478494 4.411734,-10.679483"
       id="path902"
       style="stroke-width:0.501419" />
    <path
       stroke="none"
       fill="#4f3f2f"
       d="m 24.414756,39.668467 q -0.450663,-0.980498 -0.450663,-2.146495 0,-1.987498 1.233389,-3.391996 1.257107,-1.377996 3.036031,-1.377996 1.043637,0 1.92124,0.476999 -1.968677,0.715498 -3.534131,2.490994 -1.589172,1.748997 -2.205866,3.948494 m 2.893717,2.517497 q 0.166025,-2.225997 1.612891,-3.868994 1.470579,-1.616497 3.486693,-1.828498 l 0.09489,1.0335 q 0,1.987496 -1.257105,3.365495 -1.233389,1.404497 -3.012314,1.404497 l -0.92504,-0.106001"
       id="path904"
       style="stroke-width:0.501419" />
    <path
       stroke="none"
       fill="#4f3f2f"
       d="m 35.74175,6.5995819 q 0.283364,0.7560141 0.866761,1.3537911 0.53339,0.5626149 1.150124,0.8615029 -3.133671,3.4460151 -3.200344,9.2303941 l 0.01667,0.720851 q 0.01667,0.63294 -0.400043,1.072483 -0.416711,0.457123 -1.016776,0.474705 -0.600065,0.01759 -1.016777,-0.421961 -0.43338,-0.42196 -0.450048,-1.054902 l -0.01667,-0.861502 q 0.08335,-7.138171 4.067103,-11.3753621"
       id="path1108"
       style="stroke-width:0.34238" />
    <path
       stroke="none"
       fill="#dbdbdb"
       d="m 34.558291,18.04527 0.366705,0.210981 q 0.766749,0.562614 0.766749,1.371373 0,0.791175 -0.766749,1.353791 -0.783418,0.562614 -1.883536,0.562614 -1.083449,0 -1.866867,-0.562614 -0.783418,-0.562616 -0.783418,-1.353791 0,-0.808759 0.783418,-1.371373 0.233358,-0.175818 0.500054,-0.281307 l 0.01667,0.861502 q 0.01667,0.632942 0.450048,1.054902 0.416712,0.439543 1.016777,0.421961 0.600065,-0.01759 1.016776,-0.474705 0.416711,-0.439543 0.400043,-1.072483 l -0.01667,-0.720851"
       id="path1110"
       style="stroke-width:0.34238" />
    <path
       stroke="none"
       fill="#33291e"
       d="m 47.032575,57.291838 1.113032,-0.373662 q 0.986933,-0.267671 1.956833,-0.322531 1.837013,-0.117736 3.615795,0.51258 0.531446,0.1861 0.735312,0.618982 0.211959,0.430689 -0.0411,0.851095 -0.242205,0.424641 -0.784018,0.593126 -0.552663,0.16425 -1.086869,-0.02828 l -0.718078,-0.200094 -0.347774,-0.810237 q -0.0966,-0.225065 -0.387831,-0.146081 l -0.784691,0.21282 -0.03236,0.0088 q -0.81135,-0.354272 -1.6284,-0.132675 -0.889856,0.241342 -1.250545,1.021175 -0.185578,0.409284 -0.168346,0.828173 -0.493939,0.38523 -0.838167,0.887794 -0.282845,0.414127 -0.830368,0.548266 -0.574554,0.134289 -1.084681,-0.08631 -0.515457,-0.211973 -0.695055,-0.651438 -0.171508,-0.441659 0.106006,-0.847161 0.749843,-1.09357 1.897512,-1.828398 l 0.179407,0.417979 q 0.09936,0.231496 0.390591,0.152512 l 0.784693,-0.212821 q 0.299316,-0.08118 0.199951,-0.312676 l -0.300852,-0.700919"
       id="path1052"
       style="stroke-width:0.152414" />
    <path
       stroke="none"
       fill="#ffffff"
       d="m 47.032575,57.291838 0.300852,0.700919 q 0.09936,0.231497 -0.199951,0.312676 l -0.784692,0.21282 q -0.291226,0.07898 -0.390589,-0.152512 l -0.179408,-0.417979 q 0.266003,-0.17983 0.570076,-0.334089 l 0.683712,-0.321835 m 3.238253,0.916496 0.03236,-0.0088 0.784692,-0.21282 q 0.291225,-0.07899 0.387829,0.146081 l 0.347775,0.810236 -0.619859,-0.09751 q -0.476244,-0.05749 -0.954293,-0.01398 L 50.10857,58.503608 q -0.09108,-0.212205 0.162263,-0.295275"
       id="path1054"
       style="stroke-width:0.152414" />
    <path
       stroke="none"
       fill="#ff4362"
       d="m 50.270828,58.208334 q -0.253346,0.08307 -0.162263,0.295274 l 0.140766,0.327953 -1.192886,0.208665 q -1.084006,0.293999 -1.832906,0.88478 -0.01723,-0.418889 0.168346,-0.828172 0.360689,-0.779833 1.250545,-1.021176 0.81705,-0.221596 1.6284,0.132676"
       id="path1056"
       style="stroke-width:0.152414" />
    <path
       stroke="none"
       fill="#eeecec"
       d="m 31.75,10.583333 q -0.233359,-0.685685 -0.233359,-1.4592794 0,-1.6526802 1.10012,-2.8130724 1.116786,-1.1779738 2.666954,-1.1779738 1.566834,0 2.683622,1.1779738 1.100116,1.1603922 1.100116,2.8130724 0,1.6526784 -1.100116,2.8130704 -1.116788,1.177974 -2.683622,1.177974 -0.800086,0 -1.51683,-0.316471 Q 33.150151,12.499739 32.61676,11.937124 32.033364,11.339347 31.75,10.583333"
       id="path1106"
       style="stroke-width:0.34238" />
  </g>
</svg>
