<?xml version="1.0" encoding="UTF-8" standalone="no"?>
<!-- Created with Inkscape (http://www.inkscape.org/) -->

<svg
   width="256"
   height="256"
   viewBox="0 0 67.733334 67.733334"
   version="1.1"
   id="svg5"
   inkscape:version="1.1.2 (b8e25be833, 2022-02-05)"
   sodipodi:docname="antena_monster_sleepy.svg"
   inkscape:export-filename="C:\Users\David Dalisay\KennyJam22\Sprites\green_monster.png"
   inkscape:export-xdpi="18"
   inkscape:export-ydpi="18"
   xmlns:inkscape="http://www.inkscape.org/namespaces/inkscape"
   xmlns:sodipodi="http://sodipodi.sourceforge.net/DTD/sodipodi-0.dtd"
   xmlns="http://www.w3.org/2000/svg"
   xmlns:svg="http://www.w3.org/2000/svg">
  <sodipodi:namedview
     id="namedview7"
     pagecolor="#ffffff"
     bordercolor="#666666"
     borderopacity="1.0"
     inkscape:pageshadow="2"
     inkscape:pageopacity="0.0"
     inkscape:pagecheckerboard="0"
     inkscape:document-units="mm"
     showgrid="true"
     inkscape:zoom="2.1997092"
     inkscape:cx="159.79385"
     inkscape:cy="185.02446"
     inkscape:window-width="2560"
     inkscape:window-height="1377"
     inkscape:window-x="-8"
     inkscape:window-y="-8"
     inkscape:window-maximized="1"
     inkscape:current-layer="layer1"
     units="px"
     width="384px">
    <inkscape:grid
       type="xygrid"
       id="grid3982" />
  </sodipodi:namedview>
  <defs
     id="defs2" />
  <g
     inkscape:groupmode="layer"
     id="layer2"
     inkscape:label="Layer 2" />
  <g
     inkscape:label="Layer 1"
     inkscape:groupmode="layer"
     id="layer1">
    <path
       stroke="none"
       fill="#eeecec"
       d="m 9.0722153,27.697623 q 0.132138,-3.980893 2.9364117,-6.828647 2.951095,-2.981942 7.106119,-2.981942 h 28.101477 q 4.155026,0 7.09144,2.981942 2.818956,2.847754 2.951094,6.828647 v 26.315636 q -0.132138,3.965982 -2.951094,6.813738 -2.936414,2.996852 -7.09144,2.996852 H 19.114746 q -4.155024,0 -7.106119,-2.996852 Q 9.2043533,57.979241 9.0722153,54.013259 V 27.697623"
       id="path1302"
       style="stroke-width:0.295909" />
    <path
       stroke="none"
       fill="#eeecec"
       d="m 53.343644,12.54219 0.01667,0.01759 q 1.933541,2.531765 1.933541,5.907451 0,3.938301 -2.633616,6.698627 -2.616948,2.795491 -6.367353,2.795491 -3.733734,0 -6.367351,-2.795491 -2.633616,-2.760326 -2.633616,-6.698627 v -0.246143 q 0.716743,-1.494444 1.916873,-2.883399 2.933648,-3.340523 7.084094,-4.149282 4.150448,-0.808759 7.05076,1.353792 m -0.76675,7.718366 q 0,-2.004314 -1.350144,-3.428431 -1.350146,-1.424118 -3.250351,-1.424118 -1.900204,0 -3.233681,1.424118 -1.333476,1.424117 -1.333476,3.428431 0,1.160392 0.450047,2.144967 l 0.08335,-0.439543 q 0.233358,-0.861503 0.666739,-1.406535 0.433379,-0.509869 0.816754,-0.40438 0.416712,0.105497 0.516722,0.791178 0.133348,0.685685 -0.08335,1.547189 l -0.01667,0.05275 0.08335,-0.03516 1.483493,-0.0879 q 0.650069,0.123067 0.766748,0.545033 0.100018,0.404378 -0.416711,0.861503 -0.500054,0.474705 -1.30014,0.703268 l -0.450048,0.105471 q 0.900097,0.439544 1.966878,0.439544 1.900204,0 3.25035,-1.406536 1.350145,-1.406536 1.350145,-3.41085"
       id="path1118"
       style="stroke-width:0.34238" />
    <path
       stroke="none"
       fill="#dbdbdb"
       d="m 52.576894,20.260556 q 0,2.004315 -1.350145,3.41085 -1.350146,1.406537 -3.25035,1.406537 -1.066781,0 -1.966878,-0.439543 l 0.450048,-0.105484 q 0.800086,-0.228562 1.30014,-0.703267 0.516722,-0.457126 0.416711,-0.861503 -0.116674,-0.421961 -0.766748,-0.545033 l -1.483493,0.0879 -0.08335,0.03516 0.01667,-0.05275 q 0.21669,-0.861503 0.08335,-1.547189 -0.100017,-0.685687 -0.516722,-0.791176 -0.383375,-0.105484 -0.816754,0.404378 -0.433381,0.545032 -0.666739,1.406536 l -0.08335,0.439542 q -0.450046,-0.984573 -0.450046,-2.144966 0,-2.004313 1.333476,-3.42843 1.333477,-1.424119 3.233681,-1.424119 1.900205,0 3.250351,1.424119 1.350144,1.424117 1.350144,3.42843"
       id="path1120"
       style="stroke-width:0.34238" />
    <path
       stroke="none"
       fill="#ffffff"
       d="m 37.291916,18.221079 q 0.100018,-3.780064 2.633617,-6.487647 2.633616,-2.7603284 6.367351,-2.7603284 3.750404,0 6.367353,2.7603284 l 0.683407,0.808758 q -2.900312,-2.16255 -7.05076,-1.353791 -4.150446,0.808758 -7.084095,4.149282 -1.200129,1.388954 -1.916873,2.883398"
       id="path1122"
       style="stroke-width:0.34238" />
    <path
       stroke="none"
       fill="#eeecec"
       d="m 13.979205,12.999324 -0.01494,0.01759 q -1.733372,2.531765 -1.733372,5.907451 0,3.938301 2.360971,6.698627 2.34603,2.795491 5.708175,2.795491 3.347203,0 5.708175,-2.795491 2.360972,-2.760326 2.360972,-6.698627 v -0.246142 q -0.642545,-1.494449 -1.718431,-2.883404 -2.629945,-3.340523 -6.350719,-4.149281 -3.720774,-0.80876 -6.320832,1.353791 m 0.687371,7.718366 q 0,-2.004314 1.210372,-3.428431 1.210372,-1.424118 2.91386,-1.424118 1.703486,0 2.898916,1.424118 1.195428,1.424117 1.195428,3.428431 0,1.160392 -0.403456,2.144967 l -0.07473,-0.439543 q -0.2092,-0.861502 -0.597715,-1.406535 -0.388514,-0.509869 -0.732201,-0.404379 -0.373571,0.105484 -0.463229,0.791177 -0.119546,0.685685 0.07473,1.547189 l 0.01494,0.05275 -0.07473,-0.03516 -1.329916,-0.0879 q -0.58277,0.123067 -0.687371,0.545033 -0.08966,0.404378 0.373572,0.861504 0.448286,0.474705 1.165543,0.703267 l 0.403457,0.105483 q -0.806915,0.439543 -1.763257,0.439543 -1.703487,0 -2.91386,-1.406536 -1.210371,-1.406536 -1.210371,-3.41085"
       id="path1118-2"
       style="stroke-width:0.324173" />
    <path
       stroke="none"
       fill="#dbdbdb"
       d="m 14.666576,20.717689 q 0,2.004314 1.210372,3.41085 1.210373,1.406536 2.91386,1.406536 0.956342,0 1.763258,-0.439542 l -0.403458,-0.105484 q -0.717258,-0.228562 -1.165544,-0.703267 -0.463229,-0.457126 -0.373571,-0.861503 0.104591,-0.421961 0.687371,-0.545033 l 1.329916,0.0879 0.07473,0.03516 -0.01494,-0.05275 q -0.194257,-0.861503 -0.07472,-1.547189 0.08966,-0.685687 0.463228,-0.791177 0.343687,-0.105483 0.7322,0.404379 0.388516,0.545033 0.597715,1.406536 l 0.07473,0.439542 q 0.403458,-0.984574 0.403458,-2.144967 0,-2.004313 -1.19543,-3.428431 -1.195428,-1.424118 -2.898914,-1.424118 -1.703488,0 -2.913861,1.424118 -1.210371,1.424118 -1.210371,3.428431"
       id="path1120-6"
       style="stroke-width:0.324173" />
    <path
       stroke="none"
       fill="#ffffff"
       d="m 28.369183,18.678213 q -0.08966,-3.780065 -2.360972,-6.487648 -2.360972,-2.7603284 -5.708173,-2.7603284 -3.362146,0 -5.708176,2.7603284 l -0.612657,0.808759 q 2.600058,-2.162551 6.320833,-1.353791 3.720772,0.808758 6.350717,4.149281 1.075886,1.388954 1.718428,2.883399"
       id="path1122-2"
       style="stroke-width:0.324173" />
    <path
       stroke="none"
       fill="#000000"
       fill-opacity="0.101961"
       d="m 48.062418,38.339892 0.02372,1.324998 q 0,7.048988 -4.435452,12.00448 -4.459171,4.955492 -10.744706,4.955492 -6.309255,0 -10.744706,-4.955492 -4.435452,-4.955492 -4.435452,-12.00448 l 0.04744,-1.324998 q 0.379503,6.200989 4.388013,10.679483 4.435453,4.955492 10.744707,4.955492 6.285534,0 10.744705,-4.955492 4.008511,-4.478494 4.411734,-10.679483"
       id="path902"
       style="stroke-width:0.501419" />
    <path
       stroke="none"
       fill="#4f3f2f"
       d="m 35.74175,6.5995819 q 0.283364,0.7560141 0.866761,1.3537911 0.53339,0.5626149 1.150124,0.8615029 -3.133671,3.4460151 -3.200344,9.2303941 l 0.01667,0.720851 q 0.01667,0.63294 -0.400043,1.072483 -0.416711,0.457123 -1.016776,0.474705 -0.600065,0.01759 -1.016777,-0.421961 -0.43338,-0.42196 -0.450048,-1.054902 l -0.01667,-0.861502 q 0.08335,-7.138171 4.067103,-11.3753621"
       id="path1108"
       style="stroke-width:0.34238" />
    <path
       stroke="none"
       fill="#dbdbdb"
       d="m 34.558291,18.04527 0.366705,0.210981 q 0.766749,0.562614 0.766749,1.371373 0,0.791175 -0.766749,1.353791 -0.783418,0.562614 -1.883536,0.562614 -1.083449,0 -1.866867,-0.562614 -0.783418,-0.562616 -0.783418,-1.353791 0,-0.808759 0.783418,-1.371373 0.233358,-0.175818 0.500054,-0.281307 l 0.01667,0.861502 q 0.01667,0.632942 0.450048,1.054902 0.416712,0.439543 1.016777,0.421961 0.600065,-0.01759 1.016776,-0.474705 0.416711,-0.439543 0.400043,-1.072483 l -0.01667,-0.720851"
       id="path1110"
       style="stroke-width:0.34238" />
    <path
       stroke="none"
       fill="#eeecec"
       d="m 31.75,10.583333 q -0.233359,-0.685685 -0.233359,-1.4592794 0,-1.6526802 1.10012,-2.8130724 1.116786,-1.1779738 2.666954,-1.1779738 1.566834,0 2.683622,1.1779738 1.100116,1.1603922 1.100116,2.8130724 0,1.6526784 -1.100116,2.8130704 -1.116788,1.177974 -2.683622,1.177974 -0.800086,0 -1.51683,-0.316471 Q 33.150151,12.499739 32.61676,11.937124 32.033364,11.339347 31.75,10.583333"
       id="path1106"
       style="stroke-width:0.34238" />
    <path
       stroke="none"
       fill="#33291e"
       d="m 22.092938,47.966886 q -1.620349,-1.732427 -2.643727,-3.712342 -0.469044,-0.907454 -0.447726,-2.103652 0.02127,-1.196202 0.51169,-2.021166 0.469047,-0.907459 1.129978,-0.824963 0.63961,0.04133 1.129978,0.907461 l 1.1513,1.85617 0.95942,1.072455 q 0.959414,1.031204 2.046752,1.77367 3.112771,2.144909 7.142321,2.144909 4.008227,0 7.142323,-2.144909 1.044696,-0.742466 2.046751,-1.77367 l 0.938098,-1.113705 1.19394,-1.856166 q 0.46905,-0.866215 1.129978,-0.866215 0.66093,0 1.129983,0.824963 0.447725,0.824964 0.490367,2.021166 0,1.237443 -0.469049,2.103652 -1.023378,1.979915 -2.622404,3.712342 l -0.23453,0.247476 q -2.387883,2.474886 -5.308772,3.712335 l -2.451842,0.70122 -2.98485,0.28875 -3.02749,-0.28875 -2.451841,-0.70122 q -2.920891,-1.237449 -5.266129,-3.712335 l -0.234529,-0.247476"
       id="path938"
       style="stroke-width:0.593105" />
    <path
       stroke="none"
       fill="#433528"
       d="m 39.042775,58.106436 q 3.249405,1.624805 2.988744,4.075735 l -0.126343,0.202024 -0.235069,0.111366 q -1.86611,0.307273 -3.973978,0.006 -0.150061,-0.01827 -0.256435,-0.09379 -0.115583,-0.0671 -0.15281,-0.171318 -0.751135,-1.99191 1.077699,-4.02812 l 0.200401,-0.131493 q 0.09912,-0.03883 0.237624,-0.02727 l 0.240176,0.05681"
       id="path1280"
       style="stroke-width:0.2523" />
  </g>
</svg>
