<?xml version="1.0" encoding="UTF-8" standalone="no"?>
<svg
   version="1.1"
   id="svg8"
   sodipodi:docname="timer_100.svg"
   inkscape:version="1.1.2 (b8e25be833, 2022-02-05)"
   xmlns:inkscape="http://www.inkscape.org/namespaces/inkscape"
   xmlns:sodipodi="http://sodipodi.sourceforge.net/DTD/sodipodi-0.dtd"
   xmlns="http://www.w3.org/2000/svg"
   xmlns:svg="http://www.w3.org/2000/svg">
  <sodipodi:namedview
     id="namedview10"
     pagecolor="#ffffff"
     bordercolor="#666666"
     borderopacity="1.0"
     inkscape:pageshadow="2"
     inkscape:pageopacity="0.0"
     inkscape:pagecheckerboard="0"
     showgrid="false"
     inkscape:zoom="3.5266667"
     inkscape:cx="84.357278"
     inkscape:cy="39.981096"
     inkscape:window-width="2560"
     inkscape:window-height="1377"
     inkscape:window-x="-8"
     inkscape:window-y="-8"
     inkscape:window-maximized="1"
     inkscape:current-layer="g6" />
  <defs
     id="defs2" />
  <g
     id="g6">
    <path
       stroke="none"
       fill="#FFFFFF"
       d="M0 -20 Q8.25 -20 14.1 -14.15 20 -8.3 20 0 20 8.25 14.15 14.1 L14.1 14.15 Q8.25 20 0 20 -8.3 20 -14.15 14.1 -20 8.25 -20 0 -20 -8.3 -14.15 -14.15 -8.3 -20 0 -20 M32 0 Q32 13.25 22.6 22.6 13.25 32 0 32 -13.25 32 -22.65 22.6 -32 13.25 -32 0 -32 -13.25 -22.65 -22.65 -13.25 -32 0 -32 13.25 -32 22.6 -22.65 32 -13.25 32 0 M0 -26 Q-10.75 -26 -18.4 -18.4 -26 -10.75 -26 0 -26 10.75 -18.4 18.35 -10.75 26 0 26 10.75 26 18.35 18.4 L18.4 18.35 Q26 10.75 26 0 26 -10.75 18.35 -18.4 10.75 -26 0 -26"
       id="path4" />
  </g>
</svg>
